<svg version="1.1" id="Layer_1" xmlns="http://www.w3.org/2000/svg" xmlns:xlink="http://www.w3.org/1999/xlink" x="0px" y="0px"
	 width="100%" viewBox="0 0 275 272" enable-background="new 0 0 275 272" xml:space="preserve">
<path fill="#FEFEFF" opacity="1.000000" stroke="none" 
	d="
M152.000000,273.000000 
	C101.333336,273.000000 51.166668,273.000000 1.000000,273.000000 
	C1.000000,182.333328 1.000000,91.666664 1.000000,1.000000 
	C92.666664,1.000000 184.333328,1.000000 276.000000,1.000000 
	C276.000000,91.666664 276.000000,182.333328 276.000000,273.000000 
	C234.833328,273.000000 193.666672,273.000000 152.000000,273.000000 
M71.655952,30.270969 
	C69.037903,20.843128 62.960003,15.176012 53.289246,13.501493 
	C48.314373,12.640079 46.375481,14.201932 46.255619,19.167297 
	C46.159199,23.161713 46.104298,27.165564 46.266384,31.155664 
	C46.472321,36.225365 44.336704,40.201298 40.801067,43.513329 
	C34.849060,49.088909 28.472486,53.678738 19.560337,51.956448 
	C18.115530,51.677235 16.570257,51.905003 15.071625,51.919521 
	C9.431600,51.974163 8.399629,52.952579 8.379935,58.648808 
	C8.338482,70.638832 8.406356,82.629257 8.357182,94.619225 
	C8.295132,109.748680 7.711151,107.944687 21.815456,108.152695 
	C24.986364,108.199463 28.774641,108.217529 31.189171,109.855209 
	C38.359283,114.718361 46.016869,116.249374 54.409451,115.538589 
	C64.325508,114.698784 74.242310,113.844627 84.171623,113.192032 
	C91.255043,112.726479 95.379066,108.345314 95.132736,101.139969 
	C95.088249,99.838776 94.621498,97.875809 95.275467,97.332314 
	C101.321785,92.307343 97.793594,83.378387 103.452843,77.884422 
	C104.885849,76.493263 102.882584,71.457718 102.282928,68.128403 
	C102.039009,66.774208 100.833908,65.476265 100.906250,64.200363 
	C101.524345,53.297684 97.922356,49.393555 86.925133,49.368931 
	C82.018982,49.357944 77.112778,49.367073 71.838844,49.367073 
	C71.838844,42.735615 71.838844,36.928822 71.655952,30.270969 
M146.832916,113.407890 
	C146.398438,115.353951 145.914474,117.290512 145.538589,119.247833 
	C144.326721,125.558487 145.561249,127.069313 151.994583,127.071327 
	C186.985031,127.082245 221.975494,127.084579 256.965942,127.068642 
	C262.880463,127.065948 264.099915,125.717468 263.132385,119.930992 
	C259.634155,99.009727 248.121277,84.087646 229.121841,74.838837 
	C227.247482,73.926414 225.345093,73.071556 223.337936,72.135025 
	C239.294586,54.610836 240.774231,37.589516 227.848618,23.534813 
	C216.862396,11.588912 198.237427,9.860807 185.172852,19.685549 
	C178.224594,24.910746 173.936005,31.844250 172.554260,40.494415 
	C170.473221,53.522530 175.909210,63.634953 185.695969,72.180939 
	C165.906738,79.785408 152.972961,92.914444 146.832916,113.407890 
M98.543892,249.040787 
	C106.276749,239.219727 109.588333,228.049652 109.179932,215.584549 
	C108.304390,188.861862 84.397339,166.429031 57.859566,167.604309 
	C29.044308,168.880447 6.749438,192.546646 8.393628,220.112839 
	C9.674705,241.591141 23.300367,259.501709 43.315971,266.017365 
	C63.202362,272.490936 84.158707,266.213440 98.543892,249.040787 
M144.969284,229.798080 
	C145.648560,227.432877 146.327835,225.067688 147.187622,222.073929 
	C164.324234,222.073929 182.787979,222.080841 201.251709,222.070221 
	C207.830750,222.066437 208.264297,221.624313 208.266983,214.894669 
	C208.276413,191.248886 208.272247,167.603088 208.266464,143.957306 
	C208.266144,142.626419 208.613922,141.086090 208.066971,140.018677 
	C207.411453,138.739349 205.963699,137.015320 204.867538,137.021393 
	C203.399551,137.029510 201.432632,138.188278 200.621643,139.455597 
	C199.839172,140.678329 200.157684,142.666595 200.155991,144.318726 
	C200.134140,165.633224 200.141525,186.947739 200.141510,208.262253 
	C200.141510,210.023407 200.141495,211.784576 200.141495,213.729614 
	C181.571579,213.729614 163.681580,213.729614 146.770203,213.729614 
	C146.389435,211.185455 146.623810,207.449905 145.604599,207.069077 
	C143.614853,206.325546 140.654953,206.912979 138.584717,207.936401 
	C135.184387,209.617355 131.879211,211.772369 129.127304,214.358826 
	C127.845108,215.563919 126.923813,219.514313 127.595360,220.060394 
	C132.624069,224.149673 137.192322,229.239670 144.969284,229.798080 
M131.451935,68.780670 
	C134.722931,68.780670 137.993927,68.780670 140.109360,68.780670 
	C140.803391,71.658638 140.688950,74.896561 141.996307,75.642471 
	C143.544449,76.525757 146.603928,75.803467 148.499664,74.808189 
	C152.008392,72.966057 155.207703,70.501717 158.422745,68.142342 
	C161.599731,65.810898 161.570831,63.178909 158.443649,60.847397 
	C155.383072,58.565552 152.304779,56.215820 148.935486,54.473698 
	C146.872910,53.407223 143.757736,52.434532 142.033813,53.283943 
	C140.710510,53.935955 140.822449,57.500870 140.189987,60.227875 
	C133.894577,60.227875 126.730690,59.945187 119.617493,60.420731 
	C117.770706,60.544193 116.082397,63.038113 114.321297,64.443230 
	C116.044838,65.885628 117.599586,68.209358 119.528625,68.578804 
	C123.060249,69.255173 126.812958,68.777122 131.451935,68.780670 
M63.008953,153.422089 
	C63.008953,148.137634 63.008953,142.853195 63.008953,138.491333 
	C65.767784,137.939316 69.453140,138.118210 70.025063,136.870239 
	C70.859131,135.050293 69.940086,131.962616 68.889458,129.853165 
	C67.352432,126.767113 65.072937,124.042953 63.044334,121.211517 
	C60.096172,117.096626 57.592686,117.128677 54.597382,121.330322 
	C52.672676,124.030212 50.560055,126.654259 49.068634,129.585510 
	C47.981903,131.721390 46.589886,135.038940 47.491165,136.487259 
	C48.464737,138.051712 51.946945,138.055084 54.844738,138.885498 
	C54.844738,145.075378 54.604939,152.380615 55.024883,159.647751 
	C55.121601,161.321442 57.480892,162.864395 58.798958,164.467514 
	C60.200115,162.933975 62.057083,161.604401 62.862537,159.804321 
	C63.543636,158.282181 63.006783,156.215057 63.008953,153.422089 
z"/>
<path fill="#446BF3" opacity="1.000000" stroke="none" 
	d="
M71.747398,30.696499 
	C71.838844,36.928822 71.838844,42.735615 71.838844,49.367073 
	C77.112778,49.367073 82.018982,49.357944 86.925133,49.368931 
	C97.922356,49.393555 101.524345,53.297684 100.906250,64.200363 
	C100.833908,65.476265 102.039009,66.774208 102.282928,68.128403 
	C102.882584,71.457718 104.885849,76.493263 103.452843,77.884422 
	C97.793594,83.378387 101.321785,92.307343 95.275467,97.332314 
	C94.621498,97.875809 95.088249,99.838776 95.132736,101.139969 
	C95.379066,108.345314 91.255043,112.726479 84.171623,113.192032 
	C74.242310,113.844627 64.325508,114.698784 54.409451,115.538589 
	C46.016869,116.249374 38.359283,114.718361 31.189171,109.855209 
	C28.774641,108.217529 24.986364,108.199463 21.815456,108.152695 
	C7.711151,107.944687 8.295132,109.748680 8.357182,94.619225 
	C8.406356,82.629257 8.338482,70.638832 8.379935,58.648808 
	C8.399629,52.952579 9.431600,51.974163 15.071625,51.919521 
	C16.570257,51.905003 18.115530,51.677235 19.560337,51.956448 
	C28.472486,53.678738 34.849060,49.088909 40.801067,43.513329 
	C44.336704,40.201298 46.472321,36.225365 46.266384,31.155664 
	C46.104298,27.165564 46.159199,23.161713 46.255619,19.167297 
	C46.375481,14.201932 48.314373,12.640079 53.289246,13.501493 
	C62.960003,15.176012 69.037903,20.843128 71.747398,30.696499 
M50.442577,78.649925 
	C52.042995,76.876846 53.429565,74.830750 55.282173,73.379639 
	C62.019531,68.102386 62.824318,65.215149 59.764984,57.282513 
	C59.256088,55.962978 59.207123,53.591568 60.019176,52.778637 
	C65.394852,47.397160 63.952759,40.698822 63.810970,34.360516 
	C63.678467,28.437483 60.317375,24.551542 54.755558,23.203711 
	C54.755558,25.431570 54.705280,27.564850 54.764351,29.695099 
	C55.007362,38.459312 51.641113,45.522202 44.791794,50.942345 
	C42.577370,52.694706 40.052525,54.138382 38.148468,56.171627 
	C36.747471,57.667679 35.327129,59.876453 35.286556,61.796600 
	C35.030144,73.930786 35.284924,86.075302 35.073074,98.211205 
	C35.014507,101.566307 36.285114,103.466980 39.072613,104.873314 
	C46.558247,108.649933 54.169109,107.306259 61.573914,106.059959 
	C63.481937,97.009842 63.401947,88.570297 61.052280,79.849159 
	C53.568840,83.844925 53.169323,83.803284 50.442577,78.649925 
M16.910086,74.505173 
	C16.910086,82.884293 16.910086,91.263412 16.910086,99.617813 
	C20.689600,99.617813 23.598188,99.617813 26.576660,99.617813 
	C26.576660,86.318504 26.576660,73.337608 26.576660,60.382164 
	C23.244732,60.382164 20.331280,60.382164 16.909946,60.382164 
	C16.909946,64.961349 16.909946,69.235046 16.910086,74.505173 
M83.474487,77.136093 
	C86.469559,77.129593 89.498550,77.381683 92.443779,76.995285 
	C93.704918,76.829834 94.791672,75.335228 95.957664,74.444557 
	C94.790344,73.557915 93.647758,71.944641 92.451637,71.903915 
	C85.304909,71.660530 78.141792,71.658203 70.994888,71.896461 
	C69.800476,71.936287 68.658508,73.548920 67.492302,74.434792 
	C68.663132,75.331703 69.774170,76.889870 71.015938,77.002144 
	C74.812355,77.345383 78.659035,77.132645 83.474487,77.136093 
M86.177368,91.094162 
	C87.806274,90.153671 89.435181,89.213181 91.064079,88.272690 
	C89.422760,87.294998 87.847336,85.642120 86.126976,85.474197 
	C82.006607,85.072029 77.798256,85.147758 73.669235,85.518524 
	C72.449707,85.628036 71.376442,87.366470 70.236145,88.358421 
	C71.412796,89.266045 72.528038,90.841576 73.777565,90.956444 
	C77.574341,91.305511 81.423012,91.090103 86.177368,91.094162 
M78.614052,63.242302 
	C82.104546,63.240845 85.624428,63.499557 89.071121,63.110279 
	C90.455627,62.953903 91.679413,61.374527 92.976349,60.442822 
	C91.613686,59.583061 90.307182,58.113319 88.877472,57.981670 
	C85.086617,57.632603 81.229233,57.668316 77.424271,57.929314 
	C74.913261,58.101555 70.577141,56.321663 70.540115,60.385685 
	C70.498741,64.927788 75.061378,62.656082 78.614052,63.242302 
M74.990295,99.219696 
	C73.397011,100.277466 71.803726,101.335236 70.210449,102.393013 
	C71.923241,103.268883 73.558640,104.607666 75.367302,104.909996 
	C77.954178,105.342415 80.708694,105.290245 83.310066,104.900581 
	C84.625229,104.703583 85.761269,103.310783 86.978294,102.458633 
	C85.768333,101.385857 84.695389,99.678505 83.318016,99.381096 
	C80.934441,98.866425 78.362106,99.225945 74.990295,99.219696 
z"/>
<path fill="#426AF3" opacity="1.000000" stroke="none" 
	d="
M146.930206,113.013969 
	C152.972961,92.914444 165.906738,79.785408 185.695969,72.180939 
	C175.909210,63.634953 170.473221,53.522530 172.554260,40.494415 
	C173.936005,31.844250 178.224594,24.910746 185.172852,19.685549 
	C198.237427,9.860807 216.862396,11.588912 227.848618,23.534813 
	C240.774231,37.589516 239.294586,54.610836 223.337936,72.135025 
	C225.345093,73.071556 227.247482,73.926414 229.121841,74.838837 
	C248.121277,84.087646 259.634155,99.009727 263.132385,119.930992 
	C264.099915,125.717468 262.880463,127.065948 256.965942,127.068642 
	C221.975494,127.084579 186.985031,127.082245 151.994583,127.071327 
	C145.561249,127.069313 144.326721,125.558487 145.538589,119.247833 
	C145.914474,117.290512 146.398438,115.353951 146.930206,113.013969 
M218.598755,79.713043 
	C183.203629,70.081245 156.710144,96.893173 154.549683,118.739761 
	C187.649948,118.739761 220.738922,118.739761 253.827469,118.739761 
	C253.861832,103.797821 238.395844,86.448784 218.598755,79.713043 
M206.243698,69.148888 
	C216.998611,67.940796 224.443893,61.702694 227.367981,51.449726 
	C229.833084,42.806160 226.465164,32.635853 219.205338,26.800524 
	C211.911407,20.937790 200.865677,20.126890 192.415848,24.833826 
	C183.314514,29.903679 178.622772,40.997719 181.206802,51.464691 
	C183.749329,61.763443 194.314041,70.340576 206.243698,69.148888 
z"/>
<path fill="#436AF3" opacity="1.000000" stroke="none" 
	d="
M98.325195,249.322769 
	C84.158707,266.213440 63.202362,272.490936 43.315971,266.017365 
	C23.300367,259.501709 9.674705,241.591141 8.393628,220.112839 
	C6.749438,192.546646 29.044308,168.880447 57.859566,167.604309 
	C84.397339,166.429031 108.304390,188.861862 109.179932,215.584549 
	C109.588333,228.049652 106.276749,239.219727 98.325195,249.322769 
M96.193665,198.387909 
	C87.636017,183.292023 74.759651,175.671631 57.328785,175.943314 
	C39.047497,176.228241 23.124058,189.102325 17.930784,207.789963 
	C13.268334,224.567444 21.026155,244.239441 35.943295,253.465485 
	C52.258324,263.556122 72.972984,262.111542 86.542793,249.936798 
	C101.297722,236.698807 105.140961,217.158630 96.193665,198.387909 
z"/>
<path fill="#4169F3" opacity="1.000000" stroke="none" 
	d="
M144.591690,229.929550 
	C137.192322,229.239670 132.624069,224.149673 127.595360,220.060394 
	C126.923813,219.514313 127.845108,215.563919 129.127304,214.358826 
	C131.879211,211.772369 135.184387,209.617355 138.584717,207.936401 
	C140.654953,206.912979 143.614853,206.325546 145.604599,207.069077 
	C146.623810,207.449905 146.389435,211.185455 146.770203,213.729614 
	C163.681580,213.729614 181.571579,213.729614 200.141495,213.729614 
	C200.141495,211.784576 200.141510,210.023407 200.141510,208.262253 
	C200.141525,186.947739 200.134140,165.633224 200.155991,144.318726 
	C200.157684,142.666595 199.839172,140.678329 200.621643,139.455597 
	C201.432632,138.188278 203.399551,137.029510 204.867538,137.021393 
	C205.963699,137.015320 207.411453,138.739349 208.066971,140.018677 
	C208.613922,141.086090 208.266144,142.626419 208.266464,143.957306 
	C208.272247,167.603088 208.276413,191.248886 208.266983,214.894669 
	C208.264297,221.624313 207.830750,222.066437 201.251709,222.070221 
	C182.787979,222.080841 164.324234,222.073929 147.187622,222.073929 
	C146.327835,225.067688 145.648560,227.432877 144.591690,229.929550 
z"/>
<path fill="#486EF4" opacity="1.000000" stroke="none" 
	d="
M130.962708,68.780563 
	C126.812958,68.777122 123.060249,69.255173 119.528625,68.578804 
	C117.599586,68.209358 116.044838,65.885628 114.321297,64.443230 
	C116.082397,63.038113 117.770706,60.544193 119.617493,60.420731 
	C126.730690,59.945187 133.894577,60.227875 140.189987,60.227875 
	C140.822449,57.500870 140.710510,53.935955 142.033813,53.283943 
	C143.757736,52.434532 146.872910,53.407223 148.935486,54.473698 
	C152.304779,56.215820 155.383072,58.565552 158.443649,60.847397 
	C161.570831,63.178909 161.599731,65.810898 158.422745,68.142342 
	C155.207703,70.501717 152.008392,72.966057 148.499664,74.808189 
	C146.603928,75.803467 143.544449,76.525757 141.996307,75.642471 
	C140.688950,74.896561 140.803391,71.658638 140.109360,68.780670 
	C137.993927,68.780670 134.722931,68.780670 130.962708,68.780563 
z"/>
<path fill="#4269F3" opacity="1.000000" stroke="none" 
	d="
M63.008957,153.905609 
	C63.006783,156.215057 63.543636,158.282181 62.862537,159.804321 
	C62.057083,161.604401 60.200115,162.933975 58.798962,164.467514 
	C57.480892,162.864395 55.121601,161.321442 55.024883,159.647751 
	C54.604939,152.380615 54.844738,145.075378 54.844738,138.885498 
	C51.946945,138.055084 48.464737,138.051712 47.491165,136.487259 
	C46.589886,135.038940 47.981903,131.721390 49.068634,129.585510 
	C50.560055,126.654259 52.672676,124.030212 54.597382,121.330322 
	C57.592686,117.128677 60.096172,117.096626 63.044334,121.211517 
	C65.072937,124.042953 67.352432,126.767113 68.889458,129.853165 
	C69.940086,131.962616 70.859131,135.050293 70.025063,136.870239 
	C69.453140,138.118210 65.767784,137.939316 63.008953,138.491333 
	C63.008953,142.853195 63.008953,148.137634 63.008957,153.905609 
z"/>
<path fill="#FBFCFF" opacity="1.000000" stroke="none" 
	d="
M50.488216,78.996788 
	C53.169323,83.803284 53.568840,83.844925 61.052280,79.849159 
	C63.401947,88.570297 63.481937,97.009842 61.573914,106.059959 
	C54.169109,107.306259 46.558247,108.649933 39.072613,104.873314 
	C36.285114,103.466980 35.014507,101.566307 35.073074,98.211205 
	C35.284924,86.075302 35.030144,73.930786 35.286556,61.796600 
	C35.327129,59.876453 36.747471,57.667679 38.148468,56.171627 
	C40.052525,54.138382 42.577370,52.694706 44.791794,50.942345 
	C51.641113,45.522202 55.007362,38.459312 54.764351,29.695099 
	C54.705280,27.564850 54.755558,25.431570 54.755558,23.203711 
	C60.317375,24.551542 63.678467,28.437483 63.810970,34.360516 
	C63.952759,40.698822 65.394852,47.397160 60.019176,52.778637 
	C59.207123,53.591568 59.256088,55.962978 59.764984,57.282513 
	C62.824318,65.215149 62.019531,68.102386 55.282173,73.379639 
	C53.429565,74.830750 52.042995,76.876846 50.488216,78.996788 
z"/>
<path fill="#B5DBFE" opacity="1.000000" stroke="none" 
	d="
M16.910015,74.006958 
	C16.909946,69.235046 16.909946,64.961349 16.909946,60.382164 
	C20.331280,60.382164 23.244732,60.382164 26.576660,60.382164 
	C26.576660,73.337608 26.576660,86.318504 26.576660,99.617813 
	C23.598188,99.617813 20.689600,99.617813 16.910086,99.617813 
	C16.910086,91.263412 16.910086,82.884293 16.910015,74.006958 
z"/>
<path fill="#FDFDFF" opacity="1.000000" stroke="none" 
	d="
M82.980324,77.136147 
	C78.659035,77.132645 74.812355,77.345383 71.015938,77.002144 
	C69.774170,76.889870 68.663132,75.331703 67.492302,74.434792 
	C68.658508,73.548920 69.800476,71.936287 70.994888,71.896461 
	C78.141792,71.658203 85.304909,71.660530 92.451637,71.903915 
	C93.647758,71.944641 94.790344,73.557915 95.957664,74.444557 
	C94.791672,75.335228 93.704918,76.829834 92.443779,76.995285 
	C89.498550,77.381683 86.469559,77.129593 82.980324,77.136147 
z"/>
<path fill="#EEF1FE" opacity="1.000000" stroke="none" 
	d="
M85.714417,91.094330 
	C81.423012,91.090103 77.574341,91.305511 73.777565,90.956444 
	C72.528038,90.841576 71.412796,89.266045 70.236145,88.358421 
	C71.376442,87.366470 72.449707,85.628036 73.669235,85.518524 
	C77.798256,85.147758 82.006607,85.072029 86.126976,85.474197 
	C87.847336,85.642120 89.422760,87.294998 91.064079,88.272690 
	C89.435181,89.213181 87.806274,90.153671 85.714417,91.094330 
z"/>
<path fill="#FCFDFF" opacity="1.000000" stroke="none" 
	d="
M78.137985,63.242416 
	C75.061378,62.656082 70.498741,64.927788 70.540115,60.385685 
	C70.577141,56.321663 74.913261,58.101555 77.424271,57.929314 
	C81.229233,57.668316 85.086617,57.632603 88.877472,57.981670 
	C90.307182,58.113319 91.613686,59.583061 92.976349,60.442822 
	C91.679413,61.374527 90.455627,62.953903 89.071121,63.110279 
	C85.624428,63.499557 82.104546,63.240845 78.137985,63.242416 
z"/>
<path fill="#F0F3FE" opacity="1.000000" stroke="none" 
	d="
M75.429626,99.219231 
	C78.362106,99.225945 80.934441,98.866425 83.318016,99.381096 
	C84.695389,99.678505 85.768333,101.385857 86.978302,102.458633 
	C85.761269,103.310783 84.625229,104.703583 83.310066,104.900581 
	C80.708694,105.290245 77.954178,105.342415 75.367302,104.909996 
	C73.558640,104.607666 71.923241,103.268883 70.210449,102.393005 
	C71.803726,101.335236 73.397011,100.277466 75.429626,99.219231 
z"/>
<path fill="#FDFEFF" opacity="1.000000" stroke="none" 
	d="
M218.991959,79.815704 
	C238.395844,86.448784 253.861832,103.797821 253.827469,118.739761 
	C220.738922,118.739761 187.649948,118.739761 154.549683,118.739761 
	C156.710144,96.893173 183.203629,70.081245 218.991959,79.815704 
z"/>
<path fill="#B5DBFE" opacity="1.000000" stroke="none" 
	d="
M205.795410,69.155090 
	C194.314041,70.340576 183.749329,61.763443 181.206802,51.464691 
	C178.622772,40.997719 183.314514,29.903679 192.415848,24.833826 
	C200.865677,20.126890 211.911407,20.937790 219.205338,26.800524 
	C226.465164,32.635853 229.833084,42.806160 227.367981,51.449726 
	C224.443893,61.702694 216.998611,67.940796 205.795410,69.155090 
z"/>
<path fill="#AAD1FD" opacity="1.000000" stroke="none" 
	d="
M96.373199,198.715652 
	C105.140961,217.158630 101.297722,236.698807 86.542793,249.936798 
	C72.972984,262.111542 52.258324,263.556122 35.943295,253.465485 
	C21.026155,244.239441 13.268334,224.567444 17.930784,207.789963 
	C23.124058,189.102325 39.047497,176.228241 57.328785,175.943314 
	C74.759651,175.671631 87.636017,183.292023 96.373199,198.715652 
M19.943403,223.456345 
	C21.953041,241.385468 38.996071,258.458618 61.405830,257.281799 
	C89.966133,255.782043 107.914154,222.907974 93.016716,198.455078 
	C82.872101,181.803558 64.574112,174.862381 46.525703,180.644531 
	C31.072346,185.595337 17.385391,201.888824 19.943403,223.456345 
z"/>
<path fill="#426AF3" opacity="1.000000" stroke="none" 
	d="
M19.911333,223.033112 
	C17.385391,201.888824 31.072346,185.595337 46.525703,180.644531 
	C64.574112,174.862381 82.872101,181.803558 93.016716,198.455078 
	C107.914154,222.907974 89.966133,255.782043 61.405830,257.281799 
	C38.996071,258.458618 21.953041,241.385468 19.911333,223.033112 
M78.007797,193.448944 
	C70.335373,187.346436 61.563343,185.535355 52.167995,187.592621 
	C37.518372,190.800385 27.740337,203.283264 27.752678,218.149231 
	C27.764833,232.790833 37.342705,244.813400 51.895424,248.454239 
	C65.384010,251.828873 80.169159,244.939850 86.759857,232.209457 
	C93.437263,219.311584 90.095596,203.693146 78.007797,193.448944 
z"/>
<path fill="#FBFCFF" opacity="1.000000" stroke="none" 
	d="
M78.285812,193.675751 
	C90.095596,203.693146 93.437263,219.311584 86.759857,232.209457 
	C80.169159,244.939850 65.384010,251.828873 51.895424,248.454239 
	C37.342705,244.813400 27.764833,232.790833 27.752678,218.149231 
	C27.740337,203.283264 37.518372,190.800385 52.167995,187.592621 
	C61.563343,185.535355 70.335373,187.346436 78.285812,193.675751 
M65.996399,227.460281 
	C62.206371,232.976654 55.258156,232.485016 51.493462,226.806274 
	C50.495277,225.300583 47.945328,224.823654 46.107872,223.874359 
	C45.455227,225.995880 43.654224,228.725143 44.388519,230.112671 
	C45.926338,233.018478 48.798176,235.218811 51.124676,237.706528 
	C52.466236,239.141083 53.730564,240.662201 55.184700,241.972260 
	C56.217968,242.903152 57.559937,244.226654 58.674053,244.145035 
	C60.043858,244.044708 61.431484,242.796646 62.606113,241.802200 
	C63.855930,240.744125 64.640366,238.952545 66.019051,238.262177 
	C72.139198,235.197556 74.444679,232.069458 74.190025,226.483154 
	C73.916061,220.473068 70.155968,217.203033 65.037231,215.262558 
	C62.266083,214.212021 59.120209,214.086212 56.441582,212.880676 
	C54.973804,212.220093 53.084057,210.021622 53.270683,208.806244 
	C53.489025,207.384338 55.579498,205.608505 57.179676,205.175385 
	C60.386787,204.307358 63.091759,205.318512 65.367157,208.324371 
	C66.486816,209.803497 69.373619,209.944901 71.460754,210.691650 
	C71.715797,208.467987 72.800995,205.874893 72.017174,204.113525 
	C71.022224,201.877686 68.493797,200.333221 66.658463,198.459427 
	C65.284126,197.056290 64.062157,195.485214 62.581036,194.211349 
	C61.421604,193.214142 60.001995,192.005737 58.635937,191.923660 
	C57.526279,191.856964 56.207859,193.197540 55.191528,194.139954 
	C53.750565,195.476120 52.720173,197.345154 51.129105,198.411911 
	C46.929565,201.227615 44.501823,204.812347 44.746620,210.010895 
	C44.986855,215.112625 47.783661,218.351761 52.290901,220.164795 
	C54.576557,221.084198 57.209679,221.197662 59.413345,222.247299 
	C61.774487,223.371933 63.815552,225.168564 65.996399,227.460281 
z"/>
<path fill="#436AF3" opacity="1.000000" stroke="none" 
	d="
M65.996353,227.066101 
	C63.815552,225.168564 61.774487,223.371933 59.413345,222.247299 
	C57.209679,221.197662 54.576557,221.084198 52.290901,220.164795 
	C47.783661,218.351761 44.986855,215.112625 44.746620,210.010895 
	C44.501823,204.812347 46.929565,201.227615 51.129105,198.411911 
	C52.720173,197.345154 53.750565,195.476120 55.191528,194.139954 
	C56.207859,193.197540 57.526279,191.856964 58.635937,191.923660 
	C60.001995,192.005737 61.421604,193.214142 62.581036,194.211349 
	C64.062157,195.485214 65.284126,197.056290 66.658463,198.459427 
	C68.493797,200.333221 71.022224,201.877686 72.017174,204.113525 
	C72.800995,205.874893 71.715797,208.467987 71.460754,210.691650 
	C69.373619,209.944901 66.486816,209.803497 65.367157,208.324371 
	C63.091759,205.318512 60.386787,204.307358 57.179676,205.175385 
	C55.579498,205.608505 53.489025,207.384338 53.270683,208.806244 
	C53.084057,210.021622 54.973804,212.220093 56.441582,212.880676 
	C59.120209,214.086212 62.266083,214.212021 65.037231,215.262558 
	C70.155968,217.203033 73.916061,220.473068 74.190025,226.483154 
	C74.444679,232.069458 72.139198,235.197556 66.019051,238.262177 
	C64.640366,238.952545 63.855930,240.744125 62.606113,241.802200 
	C61.431484,242.796646 60.043858,244.044708 58.674053,244.145035 
	C57.559937,244.226654 56.217968,242.903152 55.184700,241.972260 
	C53.730564,240.662201 52.466236,239.141083 51.124676,237.706528 
	C48.798176,235.218811 45.926338,233.018478 44.388519,230.112671 
	C43.654224,228.725143 45.455227,225.995880 46.107872,223.874359 
	C47.945328,224.823654 50.495277,225.300583 51.493462,226.806274 
	C55.258156,232.485016 62.206371,232.976654 65.996353,227.066101 
z"/>
</svg>