<svg version="1.1" id="Layer_1" xmlns="http://www.w3.org/2000/svg" xmlns:xlink="http://www.w3.org/1999/xlink" x="0px" y="0px"
	 width="100%" viewBox="0 0 444 400" enable-background="new 0 0 444 400" xml:space="preserve">
<path fill="#FEFFFF" opacity="1.000000" stroke="none" 
	d="
M445.000000,132.000000 
	C445.000000,221.999985 445.000000,311.499969 445.000000,401.000000 
	C297.000031,401.000000 149.000061,401.000000 1.000064,401.000000 
	C1.000042,267.666718 1.000042,134.333420 1.000021,1.000099 
	C148.999939,1.000066 296.999878,1.000066 444.999908,1.000033 
	C445.000000,44.500000 445.000000,88.000000 445.000000,132.000000 
M225.246582,176.350128 
	C226.271011,175.293945 227.304474,174.246368 228.318329,173.180145 
	C233.085876,168.166260 231.877090,163.655075 225.152634,160.770966 
	C225.127441,157.209778 225.102249,153.648605 225.992523,149.923843 
	C233.158493,149.900787 240.325134,149.929916 247.490219,149.837967 
	C253.101105,149.765991 255.026627,147.866821 255.055115,142.332245 
	C255.111740,131.333069 255.115585,120.333160 255.053329,109.334045 
	C255.023621,104.085533 253.006592,102.075119 247.845078,102.011353 
	C242.411011,101.944214 236.975464,101.996315 231.150620,101.996315 
	C231.150620,89.546806 231.269379,77.744614 231.126556,65.945580 
	C230.803726,39.277107 210.062744,18.426786 183.410339,18.294720 
	C147.412964,18.116348 111.413177,18.100082 75.416077,18.304628 
	C52.113873,18.437035 32.737759,35.082817 28.888845,57.916756 
	C28.147461,62.315067 28.033339,66.859055 28.030840,71.336060 
	C27.983229,156.665253 27.963314,241.994476 28.013693,327.323669 
	C28.030914,356.495544 48.619373,376.923645 77.799767,376.935028 
	C112.798065,376.948700 147.796402,376.961273 182.794693,376.930206 
	C206.404831,376.909241 226.065277,361.670837 229.969711,338.333191 
	C232.034958,325.988892 230.872635,313.103516 231.148590,300.462006 
	C231.198105,298.193451 231.155624,295.922913 231.155624,293.155212 
	C236.799713,293.155212 241.760574,293.180511 246.721054,293.149017 
	C253.422882,293.106415 255.048981,291.523163 255.065796,284.965240 
	C255.092285,274.632507 255.087662,264.299561 255.067581,253.966766 
	C255.054504,247.232727 253.252487,245.387253 246.520737,245.259384 
	C239.363251,245.123398 232.204468,245.055267 225.063904,244.026733 
	C224.978790,229.632172 224.893661,215.237595 224.951569,200.020233 
	C224.881302,198.087189 224.811035,196.154160 224.953735,193.270599 
	C224.945923,187.829269 224.938110,182.387939 225.246582,176.350128 
M332.927399,38.304352 
	C333.924713,42.644600 334.922058,46.984848 336.019440,51.760414 
	C334.542480,52.985954 332.580627,54.503742 330.741272,56.157753 
	C317.642090,67.936981 314.011597,83.045898 314.850311,99.996002 
	C315.531433,113.761108 326.528870,125.569534 340.344574,125.857040 
	C355.156281,126.165283 369.982117,126.113129 384.796417,125.879372 
	C396.570007,125.693596 407.937622,116.516983 409.728424,105.095833 
	C412.929047,84.683006 408.342621,66.720261 391.244324,53.396717 
	C390.372589,52.717442 389.590973,51.922520 388.854919,51.260227 
	C394.884857,36.352100 393.100159,24.508913 383.573822,15.061987 
	C374.996643,6.556307 362.407318,4.041056 351.295288,8.612961 
	C339.709686,13.379711 332.969452,23.926493 332.927399,38.304352 
M360.784485,269.261627 
	C337.272430,273.234802 329.257385,287.951874 336.200928,314.377289 
	C333.363098,316.937469 330.347717,319.318451 327.731323,322.077759 
	C317.174469,333.211273 314.289734,346.771179 314.828278,361.687042 
	C315.365601,376.568542 325.869324,388.375946 340.625153,388.784424 
	C355.270111,389.189880 369.940033,389.133179 384.589020,388.816956 
	C396.530731,388.559113 407.321686,380.088287 409.552612,368.683411 
	C412.208527,355.106110 411.125122,341.619476 403.243683,329.765869 
	C399.359894,323.924622 394.083954,319.008972 389.254852,313.464264 
	C400.543396,288.938049 381.440613,268.450562 360.784485,269.261627 
M404.493103,200.082993 
	C399.483734,194.005112 394.474396,187.927246 389.235718,181.571136 
	C395.263824,167.415207 392.614258,153.669281 381.697418,144.665207 
	C371.731964,136.445801 356.760681,135.180054 346.434998,142.899292 
	C341.729797,146.416763 337.711578,151.647781 335.064941,156.942871 
	C330.816650,165.442245 332.498199,174.401657 336.086456,181.806519 
	C330.866364,187.904892 325.539886,193.016815 321.558380,199.020630 
	C314.287018,209.985321 313.780731,222.646759 315.319275,235.175278 
	C316.759491,246.903214 327.252594,256.657379 338.667328,256.989441 
	C354.640320,257.454071 370.647491,257.460297 386.619904,256.985626 
	C397.925842,256.649628 408.303040,246.861740 409.904724,235.700500 
	C411.639130,223.614731 410.676605,211.783310 404.493103,200.082993 
M279.457458,239.355515 
	C276.967621,239.411972 274.094330,238.713974 272.092804,239.731232 
	C269.973969,240.808105 267.766327,243.309692 267.258209,245.563431 
	C266.578094,248.580078 268.809174,251.056885 272.134033,251.234375 
	C276.768860,251.481796 281.439362,251.472214 286.072693,251.200073 
	C289.487396,250.999496 291.373108,248.303024 290.767120,245.361511 
	C290.327026,243.225174 288.203857,241.000153 286.235779,239.757919 
	C284.778168,238.837875 282.363068,239.434799 279.457458,239.355515 
M308.868134,270.291473 
	C309.150635,266.561310 307.485962,263.835724 303.829254,263.479065 
	C299.215820,263.029053 294.495422,263.080872 289.874176,263.500153 
	C286.392456,263.816040 284.717499,266.436920 285.053314,269.925140 
	C285.363708,273.149078 287.151428,275.123505 290.591858,275.146545 
	C294.757660,275.174469 298.989563,275.591553 303.061920,274.975220 
	C305.097382,274.667175 306.841675,272.435608 308.868134,270.291473 
M267.621277,295.740265 
	C269.460358,296.872986 271.200043,298.710999 273.159821,298.987091 
	C276.888550,299.512421 280.743011,299.150940 284.545288,299.146729 
	C288.501617,299.142334 290.910126,297.235931 290.931274,293.217621 
	C290.952698,289.148895 288.321259,287.332397 284.535522,287.172028 
	C281.069824,287.025238 277.590485,287.047424 274.122070,287.154816 
	C268.774719,287.320312 267.073059,289.339081 267.621277,295.740265 
M306.857422,130.572235 
	C310.277985,125.356781 308.891541,120.494377 303.651825,120.091270 
	C299.181519,119.747345 294.571625,119.491653 290.209076,120.256157 
	C288.250244,120.599411 285.393433,123.516769 285.379700,125.284981 
	C285.363098,127.427635 287.751160,131.269058 289.399231,131.437653 
	C294.917023,132.002106 300.568756,131.257080 306.857422,130.572235 
M278.539917,155.867599 
	C281.029907,155.825592 283.567078,156.071075 285.998535,155.672272 
	C289.402893,155.113876 291.745270,152.640015 290.731476,149.370651 
	C290.063843,147.217636 287.476501,144.596008 285.358521,144.182419 
	C281.197479,143.369888 276.647797,143.368286 272.492981,144.200180 
	C270.412445,144.616760 267.520905,147.530594 267.414246,149.449387 
	C267.303589,151.439896 269.767365,154.082947 271.769897,155.503891 
	C273.123260,156.464188 275.626984,155.803268 278.539917,155.867599 
M281.345001,108.007195 
	C282.008392,108.007133 282.674500,107.967468 283.334686,108.013435 
	C287.622803,108.312019 290.515411,106.675125 290.914856,102.132683 
	C291.244507,98.383995 288.446564,96.116364 283.588562,96.009117 
	C280.273346,95.935913 276.955109,96.012482 273.638306,95.999107 
	C269.640930,95.982986 267.242065,98.014496 267.122223,101.926353 
	C266.998688,105.958344 269.524750,107.882530 273.440430,107.991035 
	C275.760498,108.055313 278.083740,108.005623 281.345001,108.007195 
z"/>
<path fill="#4068F3" opacity="1.000000" stroke="none" 
	d="
M225.046249,244.957535 
	C232.204468,245.055267 239.363251,245.123398 246.520737,245.259384 
	C253.252487,245.387253 255.054504,247.232727 255.067581,253.966766 
	C255.087662,264.299561 255.092285,274.632507 255.065796,284.965240 
	C255.048981,291.523163 253.422882,293.106415 246.721054,293.149017 
	C241.760574,293.180511 236.799713,293.155212 231.155624,293.155212 
	C231.155624,295.922913 231.198105,298.193451 231.148590,300.462006 
	C230.872635,313.103516 232.034958,325.988892 229.969711,338.333191 
	C226.065277,361.670837 206.404831,376.909241 182.794693,376.930206 
	C147.796402,376.961273 112.798065,376.948700 77.799767,376.935028 
	C48.619373,376.923645 28.030914,356.495544 28.013693,327.323669 
	C27.963314,241.994476 27.983229,156.665253 28.030840,71.336060 
	C28.033339,66.859055 28.147461,62.315067 28.888845,57.916756 
	C32.737759,35.082817 52.113873,18.437035 75.416077,18.304628 
	C111.413177,18.100082 147.412964,18.116348 183.410339,18.294720 
	C210.062744,18.426786 230.803726,39.277107 231.126556,65.945580 
	C231.269379,77.744614 231.150620,89.546806 231.150620,101.996315 
	C236.975464,101.996315 242.411011,101.944214 247.845078,102.011353 
	C253.006592,102.075119 255.023621,104.085533 255.053329,109.334045 
	C255.115585,120.333160 255.111740,131.333069 255.055115,142.332245 
	C255.026627,147.866821 253.101105,149.765991 247.490219,149.837967 
	C240.325134,149.929916 233.158493,149.900787 225.063354,149.944183 
	C216.427002,149.974136 208.719833,149.983765 200.544937,149.943848 
	C186.471359,150.268036 172.656357,149.278732 159.307419,151.326950 
	C137.942108,154.605194 122.167564,175.429459 122.144608,197.621887 
	C122.121803,219.656555 137.642471,240.477203 158.809464,243.729126 
	C172.636322,245.853363 186.960754,244.738907 201.526123,245.109253 
	C209.675385,245.081421 217.360825,245.019485 225.046249,244.957535 
M88.005646,198.890060 
	C88.291672,203.526230 88.246948,208.210678 88.915627,212.790985 
	C94.677879,252.261246 127.841232,280.961975 167.690933,281.071503 
	C183.020355,281.113617 198.350006,281.086426 213.679504,281.066711 
	C215.295288,281.064636 216.910858,280.898895 218.768143,280.795654 
	C218.768143,272.872101 218.768143,265.313446 218.768143,257.135742 
	C216.689072,257.135742 214.901016,257.135712 213.112976,257.135712 
	C198.616562,257.135620 184.119980,257.175323 169.623886,257.106537 
	C166.141449,257.089996 162.567398,257.151550 159.193848,256.433319 
	C129.786789,250.172684 111.835052,228.776459 110.050369,197.108032 
	C110.370491,193.971817 110.606041,190.824280 111.024216,187.701187 
	C114.201622,163.970734 135.090897,141.730911 158.836807,139.231308 
	C175.960953,137.428741 193.364120,138.271652 210.643143,137.951218 
	C213.260803,137.902679 215.880127,137.944458 218.704681,137.944458 
	C218.704681,129.710876 218.704681,122.032135 218.704681,114.910789 
	C197.711929,114.910789 176.948792,113.194618 156.572784,115.273315 
	C115.995697,119.412872 85.818649,157.019516 88.005646,198.890060 
M63.942844,257.500000 
	C63.943111,280.994324 63.908886,304.488739 63.962944,327.982941 
	C63.981087,335.867554 68.642105,340.953522 76.005447,340.966614 
	C111.663612,341.030029 147.321991,341.027313 182.980179,340.969513 
	C190.456635,340.957397 195.092590,336.312225 195.183350,328.766510 
	C195.313599,317.937286 195.228180,307.105347 195.197586,296.274658 
	C195.194962,295.343750 194.913773,294.413635 194.693802,293.065247 
	C184.450348,293.065247 174.469925,293.362823 164.512878,293.006683 
	C139.538269,292.113495 118.266808,282.428680 101.141731,264.375458 
	C79.003387,241.037338 72.704079,212.667435 76.903023,181.589020 
	C82.017647,143.733231 108.889748,114.180435 145.924423,104.659210 
	C159.709763,101.115158 173.710434,102.211693 187.664612,102.001289 
	C190.093460,101.964668 192.523315,101.996101 195.223572,101.996101 
	C195.223572,90.586609 195.230301,79.932297 195.221710,69.277992 
	C195.212814,58.232777 191.182129,54.147518 180.241135,54.144283 
	C146.582382,54.134335 112.923637,54.136688 79.264885,54.142906 
	C68.088654,54.144970 63.945652,58.309803 63.944897,69.543983 
	C63.940685,131.862656 63.942825,194.181320 63.942844,257.500000 
M40.002331,265.500000 
	C40.002415,286.497925 39.969845,307.495880 40.011883,328.493713 
	C40.053005,349.035736 55.929371,364.938812 76.391434,364.951447 
	C111.887794,364.973358 147.384171,364.970276 182.880539,364.951935 
	C200.323746,364.942902 214.230164,353.897125 218.260986,336.927094 
	C218.376205,336.441986 218.670807,335.969971 218.671585,335.491486 
	C218.694092,321.557281 218.689804,307.623016 218.689804,293.538422 
	C214.763123,293.538422 211.079681,293.538422 207.085052,293.538422 
	C207.085052,305.639923 207.117447,317.292328 207.076660,328.944489 
	C207.028183,342.789581 197.007339,352.951355 183.146957,352.978271 
	C147.484085,353.047516 111.820915,353.039856 76.157990,352.982605 
	C62.098896,352.960052 52.014889,342.751129 52.010773,328.587402 
	C51.985397,241.263000 51.987720,153.938614 52.008545,66.614220 
	C52.011787,53.019272 62.275955,42.204029 75.774040,42.140892 
	C111.602921,41.973305 147.433670,41.963444 183.262466,42.140663 
	C197.236237,42.209778 207.018524,52.451828 207.077454,66.339371 
	C207.119888,76.338165 207.074692,86.337303 207.096909,96.336235 
	C207.100830,98.103043 207.244064,99.869537 207.323502,101.648331 
	C211.450195,101.648331 215.027740,101.648331 219.082748,101.648331 
	C219.082748,89.842484 219.108261,78.379425 219.077209,66.916527 
	C219.020508,45.984962 203.462753,30.215548 182.566895,30.160391 
	C147.570724,30.068014 112.574005,30.081530 77.577736,30.154287 
	C55.355968,30.200487 40.008701,45.741528 40.005627,68.020111 
	C39.996590,133.513412 40.002365,199.006699 40.002331,265.500000 
M243.058304,266.540161 
	C243.058304,263.601776 243.058304,260.663391 243.058304,257.616638 
	C238.735062,257.616638 235.055679,257.616638 231.499603,257.616638 
	C231.499603,265.640747 231.499603,273.208160 231.499603,280.753418 
	C235.475937,280.753418 239.048172,280.753418 243.058380,280.753418 
	C243.058380,276.107788 243.058380,271.815155 243.058304,266.540161 
M243.039581,134.272842 
	C243.039581,127.675407 243.039581,121.077972 243.039581,114.302429 
	C238.795303,114.302429 235.229813,114.302429 231.525421,114.302429 
	C231.525421,122.293930 231.525421,129.975922 231.525421,137.955002 
	C234.618896,137.955002 237.311722,138.226791 239.902390,137.830597 
	C241.051804,137.654800 241.994812,136.129425 243.039581,134.272842 
z"/>
<path fill="#4269F3" opacity="1.000000" stroke="none" 
	d="
M332.917389,37.844864 
	C332.969452,23.926493 339.709686,13.379711 351.295288,8.612961 
	C362.407318,4.041056 374.996643,6.556307 383.573822,15.061987 
	C393.100159,24.508913 394.884857,36.352100 388.854919,51.260227 
	C389.590973,51.922520 390.372589,52.717442 391.244324,53.396717 
	C408.342621,66.720261 412.929047,84.683006 409.728424,105.095833 
	C407.937622,116.516983 396.570007,125.693596 384.796417,125.879372 
	C369.982117,126.113129 355.156281,126.165283 340.344574,125.857040 
	C326.528870,125.569534 315.531433,113.761108 314.850311,99.996002 
	C314.011597,83.045898 317.642090,67.936981 330.741272,56.157753 
	C332.580627,54.503742 334.542480,52.985954 336.019440,51.760414 
	C334.922058,46.984848 333.924713,42.644600 332.917389,37.844864 
M350.832153,63.856544 
	C346.111633,59.842182 342.456909,61.615238 338.434235,65.434402 
	C328.796967,74.584122 326.163361,85.882500 326.864014,98.585213 
	C327.350769,107.409019 332.652893,113.673058 341.397766,113.876137 
	C355.539886,114.204552 369.701843,114.218597 383.842743,113.862740 
	C392.764465,113.638229 398.074890,107.581253 398.225739,98.601494 
	C398.281647,95.274139 398.396667,91.924980 398.107208,88.618813 
	C397.154724,77.738976 392.329193,68.918968 383.260956,62.747292 
	C381.871460,61.801620 379.049866,61.560413 377.602020,62.330635 
	C369.115295,66.845291 360.504150,67.262108 350.832153,63.856544 
M355.255157,52.624191 
	C362.814423,55.559719 369.815552,54.531517 375.468292,48.715454 
	C380.778320,43.251995 382.029327,36.532490 379.101379,29.366034 
	C376.255951,22.401461 368.771271,17.765474 361.693237,18.320873 
	C353.784119,18.941486 346.901428,24.679176 345.181793,32.085464 
	C343.315063,40.125046 346.675781,47.325554 355.255157,52.624191 
z"/>
<path fill="#4269F3" opacity="1.000000" stroke="none" 
	d="
M361.217957,269.254517 
	C381.440613,268.450562 400.543396,288.938049 389.254852,313.464264 
	C394.083954,319.008972 399.359894,323.924622 403.243683,329.765869 
	C411.125122,341.619476 412.208527,355.106110 409.552612,368.683411 
	C407.321686,380.088287 396.530731,388.559113 384.589020,388.816956 
	C369.940033,389.133179 355.270111,389.189880 340.625153,388.784424 
	C325.869324,388.375946 315.365601,376.568542 314.828278,361.687042 
	C314.289734,346.771179 317.174469,333.211273 327.731323,322.077759 
	C330.347717,319.318451 333.363098,316.937469 336.200928,314.377289 
	C329.257385,287.951874 337.272430,273.234802 361.217957,269.254517 
M393.679749,336.984070 
	C390.264679,333.178284 387.053955,329.150696 383.310150,325.701752 
	C382.186066,324.666229 379.162628,324.451385 377.714111,325.208679 
	C367.597534,330.497559 357.698425,330.323730 347.582336,325.259796 
	C346.168274,324.551910 343.687439,324.667328 342.319672,325.464325 
	C339.934875,326.853943 337.852264,328.905548 335.958344,330.969147 
	C327.961121,339.682739 326.291382,350.283844 326.872040,361.622070 
	C327.314209,370.255981 332.902405,376.650726 341.521790,376.836212 
	C355.501343,377.137054 369.494324,377.083038 383.476837,376.867676 
	C391.002411,376.751770 397.408325,371.512787 397.951294,364.836884 
	C398.706696,355.549438 399.136017,346.153748 393.679749,336.984070 
M379.316498,305.545319 
	C383.193176,294.982422 377.042664,286.339874 370.553619,283.153992 
	C363.087128,279.488190 353.574371,281.616394 348.536530,288.150757 
	C342.064453,296.545380 344.161591,308.647003 353.078461,314.360168 
	C362.208008,320.209564 373.397003,316.737518 379.316498,305.545319 
z"/>
<path fill="#4169F3" opacity="1.000000" stroke="none" 
	d="
M404.686829,200.398590 
	C410.676605,211.783310 411.639130,223.614731 409.904724,235.700500 
	C408.303040,246.861740 397.925842,256.649628 386.619904,256.985626 
	C370.647491,257.460297 354.640320,257.454071 338.667328,256.989441 
	C327.252594,256.657379 316.759491,246.903214 315.319275,235.175278 
	C313.780731,222.646759 314.287018,209.985321 321.558380,199.020630 
	C325.539886,193.016815 330.866364,187.904892 336.086456,181.806519 
	C332.498199,174.401657 330.816650,165.442245 335.064941,156.942871 
	C337.711578,151.647781 341.729797,146.416763 346.434998,142.899292 
	C356.760681,135.180054 371.731964,136.445801 381.697418,144.665207 
	C392.614258,153.669281 395.263824,167.415207 389.235718,181.571136 
	C394.474396,187.927246 399.483734,194.005112 404.686829,200.398590 
M384.381195,194.869568 
	C381.836273,192.443893 379.336121,192.639572 376.271454,194.277359 
	C367.107391,199.174774 357.628906,199.161499 348.676361,194.047928 
	C345.333710,192.138626 343.382935,192.695480 340.869934,194.735489 
	C328.282318,204.953873 325.206573,218.564697 327.409302,233.739716 
	C328.380859,240.432816 334.178131,244.996841 340.748566,245.057205 
	C355.387512,245.191696 370.029541,245.210648 384.668091,245.059464 
	C391.343353,244.990524 397.344543,239.628616 397.988403,233.118576 
	C399.425446,218.588287 397.289581,205.169739 384.381195,194.869568 
M351.466309,153.860580 
	C344.385834,160.569366 342.791290,168.043488 346.766785,175.889145 
	C350.157806,182.581406 357.924133,186.709915 364.916779,185.537491 
	C372.442047,184.275772 378.477112,178.901657 380.001251,172.105118 
	C381.677979,164.627869 379.040649,157.516998 372.993561,153.210938 
	C366.658722,148.699966 359.360199,148.756012 351.466309,153.860580 
z"/>
<path fill="#4068F3" opacity="1.000000" stroke="none" 
	d="
M224.740768,194.221115 
	C224.811035,196.154160 224.881302,198.087189 224.598251,200.608368 
	C216.140182,207.096634 208.035446,212.996765 199.626114,219.048950 
	C193.638763,223.239365 187.902084,227.204758 182.295761,231.346573 
	C179.441406,233.455307 176.058334,234.547165 173.821243,231.828720 
	C172.325623,230.011307 171.960281,226.208725 172.711044,223.800018 
	C174.776459,217.173431 177.424515,210.685593 180.377411,204.394135 
	C182.217926,200.472702 181.754364,198.010437 178.558701,194.983810 
	C169.610992,186.509384 169.763367,186.348526 176.598404,176.093369 
	C176.782669,175.816910 177.011292,175.559784 177.143234,175.260162 
	C181.711563,164.886124 189.129227,159.508682 201.344910,161.780273 
	C209.619720,161.784424 217.424591,161.709457 225.229477,161.634491 
	C231.877090,163.655075 233.085876,168.166260 228.318329,173.180145 
	C227.304474,174.246368 226.271011,175.293945 224.792908,176.798798 
	C221.464355,179.955505 218.589478,182.663528 215.222443,185.835144 
	C218.836166,189.018967 221.788467,191.620041 224.740768,194.221115 
M192.801666,209.035736 
	C198.418854,205.073242 204.036026,201.110764 209.876907,196.990463 
	C208.328125,195.258209 207.484421,194.239792 206.563675,193.296585 
	C199.401398,185.959488 199.415527,185.186417 206.775635,177.711884 
	C207.755493,176.716797 208.608063,175.596375 210.069290,173.893311 
	C204.388474,173.893311 199.595627,173.823349 194.806290,173.922760 
	C192.399460,173.972702 185.579315,182.455093 185.930862,184.853088 
	C186.018890,185.453568 186.395706,186.207275 186.879745,186.525116 
	C195.784836,192.372421 196.290329,200.043930 191.483566,209.013367 
	C191.526062,209.224426 191.568542,209.435501 191.611038,209.646576 
	C191.777390,209.471375 191.943756,209.296188 192.801666,209.035736 
z"/>
<path fill="#99CCFD" opacity="1.000000" stroke="none" 
	d="
M199.930695,218.896912 
	C208.035446,212.996765 216.140182,207.096634 224.526733,201.019775 
	C224.893661,215.237595 224.978790,229.632172 225.055084,244.492142 
	C217.360825,245.019485 209.675385,245.081421 201.524719,244.634216 
	C201.057739,238.050873 201.157684,231.974106 201.002914,225.903824 
	C200.943161,223.560593 200.305222,221.232101 199.930695,218.896912 
z"/>
<path fill="#98CBFD" opacity="1.000000" stroke="none" 
	d="
M225.191055,161.202728 
	C217.424591,161.709457 209.619720,161.784424 201.391541,161.344727 
	C200.983063,157.217850 200.997849,153.605606 201.012650,149.993378 
	C208.719833,149.983765 216.427002,149.974136 224.605621,150.025970 
	C225.102249,153.648605 225.127441,157.209778 225.191055,161.202728 
z"/>
<path fill="#466DF4" opacity="1.000000" stroke="none" 
	d="
M279.915985,239.355728 
	C282.363068,239.434799 284.778168,238.837875 286.235779,239.757919 
	C288.203857,241.000153 290.327026,243.225174 290.767120,245.361511 
	C291.373108,248.303024 289.487396,250.999496 286.072693,251.200073 
	C281.439362,251.472214 276.768860,251.481796 272.134033,251.234375 
	C268.809174,251.056885 266.578094,248.580078 267.258209,245.563431 
	C267.766327,243.309692 269.973969,240.808105 272.092804,239.731232 
	C274.094330,238.713974 276.967621,239.411972 279.915985,239.355728 
z"/>
<path fill="#456CF3" opacity="1.000000" stroke="none" 
	d="
M308.792908,270.682739 
	C306.841675,272.435608 305.097382,274.667175 303.061920,274.975220 
	C298.989563,275.591553 294.757660,275.174469 290.591858,275.146545 
	C287.151428,275.123505 285.363708,273.149078 285.053314,269.925140 
	C284.717499,266.436920 286.392456,263.816040 289.874176,263.500153 
	C294.495422,263.080872 299.215820,263.029053 303.829254,263.479065 
	C307.485962,263.835724 309.150635,266.561310 308.792908,270.682739 
z"/>
<path fill="#446BF3" opacity="1.000000" stroke="none" 
	d="
M267.450562,295.375031 
	C267.073059,289.339081 268.774719,287.320312 274.122070,287.154816 
	C277.590485,287.047424 281.069824,287.025238 284.535522,287.172028 
	C288.321259,287.332397 290.952698,289.148895 290.931274,293.217621 
	C290.910126,297.235931 288.501617,299.142334 284.545288,299.146729 
	C280.743011,299.150940 276.888550,299.512421 273.159821,298.987091 
	C271.200043,298.710999 269.460358,296.872986 267.450562,295.375031 
z"/>
<path fill="#436AF3" opacity="1.000000" stroke="none" 
	d="
M306.513306,130.792862 
	C300.568756,131.257080 294.917023,132.002106 289.399231,131.437653 
	C287.751160,131.269058 285.363098,127.427635 285.379700,125.284981 
	C285.393433,123.516769 288.250244,120.599411 290.209076,120.256157 
	C294.571625,119.491653 299.181519,119.747345 303.651825,120.091270 
	C308.891541,120.494377 310.277985,125.356781 306.513306,130.792862 
z"/>
<path fill="#446BF3" opacity="1.000000" stroke="none" 
	d="
M278.078033,155.867554 
	C275.626984,155.803268 273.123260,156.464188 271.769897,155.503891 
	C269.767365,154.082947 267.303589,151.439896 267.414246,149.449387 
	C267.520905,147.530594 270.412445,144.616760 272.492981,144.200180 
	C276.647797,143.368286 281.197479,143.369888 285.358521,144.182419 
	C287.476501,144.596008 290.063843,147.217636 290.731476,149.370651 
	C291.745270,152.640015 289.402893,155.113876 285.998535,155.672272 
	C283.567078,156.071075 281.029907,155.825592 278.078033,155.867554 
z"/>
<path fill="#4169F3" opacity="1.000000" stroke="none" 
	d="
M280.875275,108.007187 
	C278.083740,108.005623 275.760498,108.055313 273.440430,107.991035 
	C269.524750,107.882530 266.998688,105.958344 267.122223,101.926353 
	C267.242065,98.014496 269.640930,95.982986 273.638306,95.999107 
	C276.955109,96.012482 280.273346,95.935913 283.588562,96.009117 
	C288.446564,96.116364 291.244507,98.383995 290.914856,102.132683 
	C290.515411,106.675125 287.622803,108.312019 283.334686,108.013435 
	C282.674500,107.967468 282.008392,108.007133 280.875275,108.007187 
z"/>
<path fill="#93C6FC" opacity="1.000000" stroke="none" 
	d="
M224.847260,193.745850 
	C221.788467,191.620041 218.836166,189.018967 215.222443,185.835144 
	C218.589478,182.663528 221.464355,179.955505 224.634766,177.097046 
	C224.938110,182.387939 224.945923,187.829269 224.847260,193.745850 
z"/>
<path fill="#DEEFFE" opacity="1.000000" stroke="none" 
	d="
M63.942818,257.000000 
	C63.942825,194.181320 63.940685,131.862656 63.944897,69.543983 
	C63.945652,58.309803 68.088654,54.144970 79.264885,54.142906 
	C112.923637,54.136688 146.582382,54.134335 180.241135,54.144283 
	C191.182129,54.147518 195.212814,58.232777 195.221710,69.277992 
	C195.230301,79.932297 195.223572,90.586609 195.223572,101.996101 
	C192.523315,101.996101 190.093460,101.964668 187.664612,102.001289 
	C173.710434,102.211693 159.709763,101.115158 145.924423,104.659210 
	C108.889748,114.180435 82.017647,143.733231 76.903023,181.589020 
	C72.704079,212.667435 79.003387,241.037338 101.141731,264.375458 
	C118.266808,282.428680 139.538269,292.113495 164.512878,293.006683 
	C174.469925,293.362823 184.450348,293.065247 194.693802,293.065247 
	C194.913773,294.413635 195.194962,295.343750 195.197586,296.274658 
	C195.228180,307.105347 195.313599,317.937286 195.183350,328.766510 
	C195.092590,336.312225 190.456635,340.957397 182.980179,340.969513 
	C147.321991,341.027313 111.663612,341.030029 76.005447,340.966614 
	C68.642105,340.953522 63.981087,335.867554 63.962944,327.982941 
	C63.908886,304.488739 63.943111,280.994324 63.942818,257.000000 
M141.853729,311.095276 
	C134.055466,311.083618 126.256973,311.031097 118.459045,311.076965 
	C114.338440,311.101196 111.751740,313.020630 111.912895,317.405792 
	C112.064972,321.543854 114.628502,323.109222 118.550766,323.080505 
	C125.851089,323.027039 133.152588,323.016174 140.452591,323.088867 
	C143.750809,323.121704 146.410568,322.380371 147.228943,318.714783 
	C148.105988,314.786407 146.508759,312.314056 141.853729,311.095276 
M173.388428,323.072083 
	C174.884781,323.062622 176.384521,323.114380 177.876816,323.031647 
	C181.548508,322.828033 183.766846,320.425385 183.165268,317.210754 
	C182.748199,314.982025 180.373520,311.819977 178.416107,311.441681 
	C173.930023,310.574677 169.142181,310.879364 164.518478,311.240784 
	C160.994965,311.516174 158.887695,314.446106 159.669144,317.524841 
	C160.213165,319.668213 162.828445,321.879181 165.046204,322.833282 
	C167.156204,323.741028 169.951187,323.056549 173.388428,323.072083 
M84.709290,323.071960 
	C87.697342,323.065948 90.685425,323.066162 93.673439,323.052338 
	C97.539673,323.034485 99.634636,320.823853 99.736565,317.226227 
	C99.841087,313.537384 97.541008,311.361969 93.870895,311.122467 
	C90.564362,310.906647 87.233490,311.030243 83.913780,311.057526 
	C78.439949,311.102570 75.992958,312.965973 75.949043,317.056580 
	C75.904633,321.192261 78.047821,322.836975 84.709290,323.071960 
z"/>
<path fill="#97CBFD" opacity="1.000000" stroke="none" 
	d="
M40.002335,265.000000 
	C40.002365,199.006699 39.996590,133.513412 40.005627,68.020111 
	C40.008701,45.741528 55.355968,30.200487 77.577736,30.154287 
	C112.574005,30.081530 147.570724,30.068014 182.566895,30.160391 
	C203.462753,30.215548 219.020508,45.984962 219.077209,66.916527 
	C219.108261,78.379425 219.082748,89.842484 219.082748,101.648331 
	C215.027740,101.648331 211.450195,101.648331 207.323502,101.648331 
	C207.244064,99.869537 207.100830,98.103043 207.096909,96.336235 
	C207.074692,86.337303 207.119888,76.338165 207.077454,66.339371 
	C207.018524,52.451828 197.236237,42.209778 183.262466,42.140663 
	C147.433670,41.963444 111.602921,41.973305 75.774040,42.140892 
	C62.275955,42.204029 52.011787,53.019272 52.008545,66.614220 
	C51.987720,153.938614 51.985397,241.263000 52.010773,328.587402 
	C52.014889,342.751129 62.098896,352.960052 76.157990,352.982605 
	C111.820915,353.039856 147.484085,353.047516 183.146957,352.978271 
	C197.007339,352.951355 207.028183,342.789581 207.076660,328.944489 
	C207.117447,317.292328 207.085052,305.639923 207.085052,293.538422 
	C211.079681,293.538422 214.763123,293.538422 218.689804,293.538422 
	C218.689804,307.623016 218.694092,321.557281 218.671585,335.491486 
	C218.670807,335.969971 218.376205,336.441986 218.260986,336.927094 
	C214.230164,353.897125 200.323746,364.942902 182.880539,364.951935 
	C147.384171,364.970276 111.887794,364.973358 76.391434,364.951447 
	C55.929371,364.938812 40.053005,349.035736 40.011883,328.493713 
	C39.969845,307.495880 40.002415,286.497925 40.002335,265.000000 
z"/>
<path fill="#DEEFFE" opacity="1.000000" stroke="none" 
	d="
M200.544937,149.943848 
	C200.997849,153.605606 200.983063,157.217850 200.921631,161.265610 
	C189.129227,159.508682 181.711563,164.886124 177.143234,175.260162 
	C177.011292,175.559784 176.782669,175.816910 176.598404,176.093369 
	C169.763367,186.348526 169.610992,186.509384 178.558701,194.983810 
	C181.754364,198.010437 182.217926,200.472702 180.377411,204.394135 
	C177.424515,210.685593 174.776459,217.173431 172.711044,223.800018 
	C171.960281,226.208725 172.325623,230.011307 173.821243,231.828720 
	C176.058334,234.547165 179.441406,233.455307 182.295761,231.346573 
	C187.902084,227.204758 193.638763,223.239365 199.626099,219.048950 
	C200.305222,221.232101 200.943161,223.560593 201.002914,225.903824 
	C201.157684,231.974106 201.057739,238.050873 201.060883,244.600098 
	C186.960754,244.738907 172.636322,245.853363 158.809464,243.729126 
	C137.642471,240.477203 122.121803,219.656555 122.144608,197.621887 
	C122.167564,175.429459 137.942108,154.605194 159.307419,151.326950 
	C172.656357,149.278732 186.471359,150.268036 200.544937,149.943848 
z"/>
<path fill="#B5DBFE" opacity="1.000000" stroke="none" 
	d="
M88.130478,197.962082 
	C85.818649,157.019516 115.995697,119.412872 156.572784,115.273315 
	C176.948792,113.194618 197.711929,114.910789 218.704681,114.910789 
	C218.704681,122.032135 218.704681,129.710876 218.704681,137.944458 
	C215.880127,137.944458 213.260803,137.902679 210.643143,137.951218 
	C193.364120,138.271652 175.960953,137.428741 158.836807,139.231308 
	C135.090897,141.730911 114.201622,163.970734 111.024216,187.701187 
	C110.606041,190.824280 110.370491,193.971817 109.528778,197.547852 
	C102.048279,197.979141 95.089378,197.970612 88.130478,197.962082 
z"/>
<path fill="#97CBFD" opacity="1.000000" stroke="none" 
	d="
M88.068062,198.426071 
	C95.089378,197.970612 102.048279,197.979141 109.469589,197.983032 
	C111.835052,228.776459 129.786789,250.172684 159.193848,256.433319 
	C162.567398,257.151550 166.141449,257.089996 169.623886,257.106537 
	C184.119980,257.175323 198.616562,257.135620 213.112976,257.135712 
	C214.901016,257.135712 216.689072,257.135742 218.768143,257.135742 
	C218.768143,265.313446 218.768143,272.872101 218.768143,280.795654 
	C216.910858,280.898895 215.295288,281.064636 213.679504,281.066711 
	C198.350006,281.086426 183.020355,281.113617 167.690933,281.071503 
	C127.841232,280.961975 94.677879,252.261246 88.915627,212.790985 
	C88.246948,208.210678 88.291672,203.526230 88.068062,198.426071 
z"/>
<path fill="#B2D8FE" opacity="1.000000" stroke="none" 
	d="
M243.058350,267.031372 
	C243.058380,271.815155 243.058380,276.107788 243.058380,280.753418 
	C239.048172,280.753418 235.475937,280.753418 231.499603,280.753418 
	C231.499603,273.208160 231.499603,265.640747 231.499603,257.616638 
	C235.055679,257.616638 238.735062,257.616638 243.058304,257.616638 
	C243.058304,260.663391 243.058304,263.601776 243.058350,267.031372 
z"/>
<path fill="#96C9FD" opacity="1.000000" stroke="none" 
	d="
M243.035538,134.744751 
	C241.994812,136.129425 241.051804,137.654800 239.902390,137.830597 
	C237.311722,138.226791 234.618896,137.955002 231.525421,137.955002 
	C231.525421,129.975922 231.525421,122.293930 231.525421,114.302429 
	C235.229813,114.302429 238.795303,114.302429 243.039581,114.302429 
	C243.039581,121.077972 243.039581,127.675407 243.035538,134.744751 
z"/>
<path fill="#B5DBFE" opacity="1.000000" stroke="none" 
	d="
M351.199768,63.998878 
	C360.504150,67.262108 369.115295,66.845291 377.602020,62.330635 
	C379.049866,61.560413 381.871460,61.801620 383.260956,62.747292 
	C392.329193,68.918968 397.154724,77.738976 398.107208,88.618813 
	C398.396667,91.924980 398.281647,95.274139 398.225739,98.601494 
	C398.074890,107.581253 392.764465,113.638229 383.842743,113.862740 
	C369.701843,114.218597 355.539886,114.204552 341.397766,113.876137 
	C332.652893,113.673058 327.350769,107.409019 326.864014,98.585213 
	C326.163361,85.882500 328.796967,74.584122 338.434235,65.434402 
	C342.456909,61.615238 346.111633,59.842182 351.199768,63.998878 
z"/>
<path fill="#DDEEFE" opacity="1.000000" stroke="none" 
	d="
M354.920044,52.428154 
	C346.675781,47.325554 343.315063,40.125046 345.181793,32.085464 
	C346.901428,24.679176 353.784119,18.941486 361.693237,18.320873 
	C368.771271,17.765474 376.255951,22.401461 379.101379,29.366034 
	C382.029327,36.532490 380.778320,43.251995 375.468292,48.715454 
	C369.815552,54.531517 362.814423,55.559719 354.920044,52.428154 
z"/>
<path fill="#B5DBFE" opacity="1.000000" stroke="none" 
	d="
M393.849182,337.315582 
	C399.136017,346.153748 398.706696,355.549438 397.951294,364.836884 
	C397.408325,371.512787 391.002411,376.751770 383.476837,376.867676 
	C369.494324,377.083038 355.501343,377.137054 341.521790,376.836212 
	C332.902405,376.650726 327.314209,370.255981 326.872040,361.622070 
	C326.291382,350.283844 327.961121,339.682739 335.958344,330.969147 
	C337.852264,328.905548 339.934875,326.853943 342.319672,325.464325 
	C343.687439,324.667328 346.168274,324.551910 347.582336,325.259796 
	C357.698425,330.323730 367.597534,330.497559 377.714111,325.208679 
	C379.162628,324.451385 382.186066,324.666229 383.310150,325.701752 
	C387.053955,329.150696 390.264679,333.178284 393.849182,337.315582 
z"/>
<path fill="#DDEEFE" opacity="1.000000" stroke="none" 
	d="
M379.204529,305.916504 
	C373.397003,316.737518 362.208008,320.209564 353.078461,314.360168 
	C344.161591,308.647003 342.064453,296.545380 348.536530,288.150757 
	C353.574371,281.616394 363.087128,279.488190 370.553619,283.153992 
	C377.042664,286.339874 383.193176,294.982422 379.204529,305.916504 
z"/>
<path fill="#98CCFD" opacity="1.000000" stroke="none" 
	d="
M384.674805,195.096680 
	C397.289581,205.169739 399.425446,218.588287 397.988403,233.118576 
	C397.344543,239.628616 391.343353,244.990524 384.668091,245.059464 
	C370.029541,245.210648 355.387512,245.191696 340.748566,245.057205 
	C334.178131,244.996841 328.380859,240.432816 327.409302,233.739716 
	C325.206573,218.564697 328.282318,204.953873 340.869934,194.735489 
	C343.382935,192.695480 345.333710,192.138626 348.676361,194.047928 
	C357.628906,199.161499 367.107391,199.174774 376.271454,194.277359 
	C379.336121,192.639572 381.836273,192.443893 384.674805,195.096680 
z"/>
<path fill="#DDEEFE" opacity="1.000000" stroke="none" 
	d="
M351.746796,153.616241 
	C359.360199,148.756012 366.658722,148.699966 372.993561,153.210938 
	C379.040649,157.516998 381.677979,164.627869 380.001251,172.105118 
	C378.477112,178.901657 372.442047,184.275772 364.916779,185.537491 
	C357.924133,186.709915 350.157806,182.581406 346.766785,175.889145 
	C342.791290,168.043488 344.385834,160.569366 351.746796,153.616241 
z"/>
<path fill="#B3D9FE" opacity="1.000000" stroke="none" 
	d="
M191.822586,208.833679 
	C196.290329,200.043930 195.784836,192.372421 186.879745,186.525116 
	C186.395706,186.207275 186.018890,185.453568 185.930862,184.853088 
	C185.579315,182.455093 192.399460,173.972702 194.806290,173.922760 
	C199.595627,173.823349 204.388474,173.893311 210.069290,173.893311 
	C208.608063,175.596375 207.755493,176.716797 206.775635,177.711884 
	C199.415527,185.186417 199.401398,185.959488 206.563675,193.296585 
	C207.484421,194.239792 208.328125,195.258209 209.876907,196.990463 
	C204.036026,201.110764 198.418854,205.073242 192.385208,209.005325 
	C191.968750,208.974915 191.822586,208.833679 191.822586,208.833679 
z"/>
<path fill="#B3D9FE" opacity="1.000000" stroke="none" 
	d="
M192.039429,209.047958 
	C191.943756,209.296188 191.777390,209.471375 191.611023,209.646576 
	C191.568542,209.435501 191.526062,209.224426 191.653076,208.923523 
	C191.822586,208.833679 191.968750,208.974915 192.039429,209.047958 
z"/>
<path fill="#4169F3" opacity="1.000000" stroke="none" 
	d="
M142.277512,311.141174 
	C146.508759,312.314056 148.105988,314.786407 147.228943,318.714783 
	C146.410568,322.380371 143.750809,323.121704 140.452591,323.088867 
	C133.152588,323.016174 125.851089,323.027039 118.550766,323.080505 
	C114.628502,323.109222 112.064972,321.543854 111.912895,317.405792 
	C111.751740,313.020630 114.338440,311.101196 118.459045,311.076965 
	C126.256973,311.031097 134.055466,311.083618 142.277512,311.141174 
z"/>
<path fill="#426AF3" opacity="1.000000" stroke="none" 
	d="
M172.916718,323.072144 
	C169.951187,323.056549 167.156204,323.741028 165.046204,322.833282 
	C162.828445,321.879181 160.213165,319.668213 159.669144,317.524841 
	C158.887695,314.446106 160.994965,311.516174 164.518478,311.240784 
	C169.142181,310.879364 173.930023,310.574677 178.416107,311.441681 
	C180.373520,311.819977 182.748199,314.982025 183.165268,317.210754 
	C183.766846,320.425385 181.548508,322.828033 177.876816,323.031647 
	C176.384521,323.114380 174.884781,323.062622 172.916718,323.072144 
z"/>
<path fill="#426AF3" opacity="1.000000" stroke="none" 
	d="
M84.248306,323.071899 
	C78.047821,322.836975 75.904633,321.192261 75.949043,317.056580 
	C75.992958,312.965973 78.439949,311.102570 83.913780,311.057526 
	C87.233490,311.030243 90.564362,310.906647 93.870895,311.122467 
	C97.541008,311.361969 99.841087,313.537384 99.736565,317.226227 
	C99.634636,320.823853 97.539673,323.034485 93.673439,323.052338 
	C90.685425,323.066162 87.697342,323.065948 84.248306,323.071899 
z"/>
</svg>