<svg version="1.1" id="Layer_1" xmlns="http://www.w3.org/2000/svg" xmlns:xlink="http://www.w3.org/1999/xlink" x="0px" y="0px"
	 width="100%" viewBox="0 0 287 270" enable-background="new 0 0 287 270" xml:space="preserve">
<path fill="#FEFEFF" opacity="1.000000" stroke="none" 
	d="
M288.000000,96.000000 
	C288.000000,154.640549 288.000000,212.781113 288.000000,270.960815 
	C192.402405,270.960815 96.804802,270.960815 1.103593,270.960815 
	C1.103593,181.109573 1.103593,91.218987 1.103593,1.164201 
	C96.666435,1.164201 192.333191,1.164201 288.000000,1.164201 
	C288.000000,32.528351 288.000000,64.014175 288.000000,96.000000 
M165.734390,141.345184 
	C166.573563,146.844864 165.081985,150.988678 158.751007,152.918182 
	C158.751007,150.976868 158.751022,149.358017 158.750992,147.739151 
	C158.750778,135.077789 158.692108,122.416000 158.783676,109.755295 
	C158.813583,105.620560 157.271591,103.603218 152.904861,103.691795 
	C145.078018,103.850563 137.243927,103.834610 129.416306,103.696587 
	C125.329727,103.624519 123.859566,105.335983 123.874031,109.394447 
	C123.976730,138.215347 123.966682,167.036896 123.883400,195.857925 
	C123.872375,199.673660 125.288666,201.448624 129.152527,201.281342 
	C131.722046,201.170120 134.300293,201.260239 137.034729,201.260239 
	C137.034729,204.174408 137.034729,206.236267 137.034729,208.735092 
	C134.732834,208.735092 132.759552,208.735092 130.786285,208.735092 
	C96.800507,208.735092 62.814732,208.733444 28.828957,208.736359 
	C21.266603,208.737000 21.067163,208.948120 21.061651,216.697266 
	C21.059519,219.696014 21.057457,222.694748 21.062075,225.693497 
	C21.073315,232.989990 21.332981,233.259079 28.716274,233.260086 
	C66.200592,233.265167 103.684975,233.292511 141.169098,233.209366 
	C144.416733,233.202164 146.484634,233.994904 148.562302,236.846634 
	C163.590393,257.473541 183.953506,266.532135 209.295456,263.093964 
	C240.426849,258.870331 263.807190,230.747177 262.745667,199.476471 
	C261.654785,167.341553 236.538940,140.976578 204.823654,138.954575 
	C201.031189,138.712799 200.161316,137.453796 200.191238,133.877487 
	C200.352890,114.553596 200.165237,95.226707 200.340729,75.903061 
	C200.383743,71.166763 198.675476,69.218086 193.948242,69.338562 
	C186.955719,69.516777 179.955231,69.372688 172.958191,69.387184 
	C166.288239,69.401001 165.742935,69.919304 165.739151,76.414986 
	C165.726761,97.739388 165.734283,119.063805 165.734390,141.345184 
M71.701210,42.296089 
	C70.760834,49.280949 68.518227,56.380234 69.120087,63.229572 
	C71.057922,85.282669 93.167015,101.450241 114.739662,97.486107 
	C138.316101,93.153755 153.175003,70.764420 147.371567,48.316456 
	C143.151794,31.994043 129.481155,19.868690 113.314262,18.108875 
	C95.644257,16.185444 80.122757,24.979761 71.701210,42.296089 
M101.486679,130.836517 
	C96.829292,130.837326 92.169174,130.936890 87.515396,130.807602 
	C83.819832,130.704926 81.949997,132.078598 81.962509,136.001923 
	C82.026711,156.128250 82.015778,176.254929 81.971054,196.381363 
	C81.963615,199.729813 83.453705,201.276031 86.769623,201.266479 
	C95.086266,201.242523 103.403526,201.210999 111.719528,201.289536 
	C115.328354,201.323624 116.864891,199.576065 116.863365,196.120987 
	C116.854469,175.994476 116.864319,155.867950 116.849236,135.741440 
	C116.846825,132.530487 115.307526,130.792618 111.960457,130.833984 
	C108.800606,130.873062 105.639847,130.838531 101.486679,130.836517 
M156.869171,53.189205 
	C162.764404,48.887978 168.659637,44.586746 174.756836,40.138161 
	C176.427902,42.053947 177.999420,43.985500 179.708084,45.786961 
	C183.072266,49.333862 186.145218,48.810989 187.303970,44.226589 
	C189.830017,34.232880 192.074570,24.167372 194.375595,14.117796 
	C195.141388,10.773337 193.657166,8.932483 190.247528,8.948626 
	C179.584259,8.999107 168.918701,9.043193 158.261414,9.348267 
	C156.692429,9.393181 154.445404,10.485546 153.826813,11.741041 
	C153.257370,12.896753 154.147614,15.101653 154.955719,16.526192 
	C156.075531,18.500250 157.720032,20.176657 159.387161,22.294638 
	C155.696533,25.067085 151.993668,27.369392 148.968872,30.358004 
	C147.766586,31.545891 148.066574,34.254242 147.682632,36.270378 
	C149.605881,36.325390 151.946350,37.108452 153.370407,36.292377 
	C156.956039,34.237598 160.188278,31.536835 163.443481,28.945894 
	C165.358887,27.421364 167.963760,25.884413 168.568405,23.850578 
	C169.120468,21.993620 167.395844,19.459818 166.651413,17.152441 
	C172.744385,17.152441 178.945557,17.152441 185.662247,17.152441 
	C184.243271,23.357361 182.934357,29.081001 181.512268,35.299454 
	C178.438538,32.968822 176.563995,28.837168 172.353760,32.076710 
	C166.283035,36.747780 160.048431,41.210983 154.090424,46.018993 
	C152.914536,46.967915 151.897263,49.274860 152.233261,50.591496 
	C152.536530,51.779869 154.792450,52.469929 156.869171,53.189205 
M74.258759,183.497284 
	C74.256523,177.511185 74.224434,171.524902 74.264740,165.539093 
	C74.284653,162.582886 73.242729,160.741302 69.969391,160.750534 
	C61.322922,160.774948 52.676323,160.767899 44.029808,160.753754 
	C41.148888,160.749039 39.750160,162.141479 39.753498,165.024658 
	C39.765816,175.666550 39.759251,186.308472 39.758011,196.950378 
	C39.757679,199.797028 41.116657,201.251297 44.022858,201.245209 
	C52.669357,201.227127 61.315918,201.236465 69.962456,201.239731 
	C72.819527,201.240814 74.260918,199.860916 74.249268,196.966003 
	C74.232536,192.809097 74.253891,188.652039 74.258759,183.497284 
M70.495232,98.965889 
	C71.848366,98.000641 73.659805,97.308998 74.440193,96.001831 
	C75.446297,94.316559 75.627007,92.138527 76.163193,90.172714 
	C74.108414,90.058632 71.555725,89.094223 70.075317,89.961067 
	C54.004089,99.371445 54.049931,99.449768 54.052296,117.870796 
	C54.052448,119.034935 53.813831,120.263977 54.107738,121.348625 
	C54.599052,123.161781 55.021477,125.908173 56.221157,126.387001 
	C57.776726,127.007866 60.440193,126.335091 61.976658,125.276070 
	C70.594116,119.336433 79.017990,113.115814 87.502319,106.983337 
	C88.847763,106.010849 90.591270,105.252289 91.374626,103.933739 
	C92.157608,102.615791 92.725067,99.921326 92.028786,99.259720 
	C90.928917,98.214653 88.667686,98.003433 86.950432,98.133209 
	C85.807327,98.219597 84.743950,99.497437 83.664665,100.269653 
	C76.707359,105.247559 69.755501,110.233101 62.680321,115.303215 
	C59.802361,107.122467 63.538925,102.607079 70.495232,98.965889 
z"/>
<path fill="#4169F3" opacity="1.000000" stroke="none" 
	d="
M165.734283,140.866699 
	C165.734283,119.063805 165.726761,97.739388 165.739151,76.414986 
	C165.742935,69.919304 166.288239,69.401001 172.958191,69.387184 
	C179.955231,69.372688 186.955719,69.516777 193.948242,69.338562 
	C198.675476,69.218086 200.383743,71.166763 200.340729,75.903061 
	C200.165237,95.226707 200.352890,114.553596 200.191238,133.877487 
	C200.161316,137.453796 201.031189,138.712799 204.823654,138.954575 
	C236.538940,140.976578 261.654785,167.341553 262.745667,199.476471 
	C263.807190,230.747177 240.426849,258.870331 209.295456,263.093964 
	C183.953506,266.532135 163.590393,257.473541 148.562302,236.846634 
	C146.484634,233.994904 144.416733,233.202164 141.169098,233.209366 
	C103.684975,233.292511 66.200592,233.265167 28.716274,233.260086 
	C21.332981,233.259079 21.073315,232.989990 21.062075,225.693497 
	C21.057457,222.694748 21.059519,219.696014 21.061651,216.697266 
	C21.067163,208.948120 21.266603,208.737000 28.828957,208.736359 
	C62.814732,208.733444 96.800507,208.735092 130.786285,208.735092 
	C132.759552,208.735092 134.732834,208.735092 137.034729,208.735092 
	C137.034729,206.236267 137.034729,204.174408 137.034729,201.260239 
	C134.300293,201.260239 131.722046,201.170120 129.152527,201.281342 
	C125.288666,201.448624 123.872375,199.673660 123.883400,195.857925 
	C123.966682,167.036896 123.976730,138.215347 123.874031,109.394447 
	C123.859566,105.335983 125.329727,103.624519 129.416306,103.696587 
	C137.243927,103.834610 145.078018,103.850563 152.904861,103.691795 
	C157.271591,103.603218 158.813583,105.620560 158.783676,109.755295 
	C158.692108,122.416000 158.750778,135.077789 158.750992,147.739151 
	C158.751022,149.358017 158.751007,150.976868 158.751007,152.918182 
	C165.081985,150.988678 166.573563,146.844864 165.734283,140.866699 
M195.732651,256.015167 
	C201.032974,255.672775 206.447296,255.909439 211.614746,254.892105 
	C240.708633,249.164261 259.948029,219.430664 253.855515,190.030029 
	C247.739609,160.516373 217.837875,140.907135 188.766434,147.345261 
	C161.591965,153.363312 143.550598,177.185623 145.070602,205.042480 
	C146.504425,231.320312 167.812454,253.142120 195.732651,256.015167 
M150.956635,124.509941 
	C150.956635,120.233376 150.956635,115.956810 150.956635,111.164772 
	C145.696365,111.164772 141.051254,111.426331 136.450119,111.088737 
	C132.138885,110.772423 131.139206,112.529900 131.164795,116.548096 
	C131.317627,140.541245 131.230347,164.535843 131.247986,188.529953 
	C131.252106,194.117462 131.481354,194.261169 137.749359,193.222382 
	C139.292175,182.301498 143.444061,172.291214 150.017395,163.244553 
	C150.877975,162.060181 150.907608,160.100739 150.918243,158.497620 
	C150.991241,147.500809 150.956573,136.503281 150.956635,124.509941 
M173.103195,106.500000 
	C173.103195,118.880966 173.103195,131.261932 173.103195,143.908997 
	C180.071487,141.955429 186.249268,140.223480 192.548721,138.457413 
	C192.548721,118.129280 192.548721,97.895317 192.548721,77.357880 
	C186.058151,77.357880 179.849518,77.357880 173.103363,77.357880 
	C173.103363,86.940269 173.103363,96.220131 173.103195,106.500000 
M110.500000,225.902756 
	C120.863922,225.902756 131.227844,225.902756 141.759995,225.902756 
	C139.471878,216.095230 139.471878,216.095200 130.442139,216.095200 
	C98.668221,216.095200 66.894302,216.095230 35.120384,216.095230 
	C33.192310,216.095230 31.264235,216.095230 29.336681,216.095230 
	C29.336681,219.743881 29.336681,222.627960 29.336681,225.902603 
	C56.321213,225.902603 82.910606,225.902603 110.500000,225.902756 
z"/>
<path fill="#436BF3" opacity="1.000000" stroke="none" 
	d="
M71.809792,41.929718 
	C80.122757,24.979761 95.644257,16.185444 113.314262,18.108875 
	C129.481155,19.868690 143.151794,31.994043 147.371567,48.316456 
	C153.175003,70.764420 138.316101,93.153755 114.739662,97.486107 
	C93.167015,101.450241 71.057922,85.282669 69.120087,63.229572 
	C68.518227,56.380234 70.760834,49.280949 71.809792,41.929718 
M78.392410,46.143948 
	C73.474541,61.292095 77.406876,74.850632 89.349304,83.922874 
	C99.861557,91.908676 114.772087,92.294228 126.299950,84.878342 
	C136.889038,78.066360 142.804230,64.410454 140.319366,52.512962 
	C137.296249,38.038483 126.578491,27.469257 113.436111,26.002319 
	C97.675034,24.243082 85.812462,30.891266 78.392410,46.143948 
z"/>
<path fill="#436AF3" opacity="1.000000" stroke="none" 
	d="
M101.983086,130.836441 
	C105.639847,130.838531 108.800606,130.873062 111.960457,130.833984 
	C115.307526,130.792618 116.846825,132.530487 116.849236,135.741440 
	C116.864319,155.867950 116.854469,175.994476 116.863365,196.120987 
	C116.864891,199.576065 115.328354,201.323624 111.719528,201.289536 
	C103.403526,201.210999 95.086266,201.242523 86.769623,201.266479 
	C83.453705,201.276031 81.963615,199.729813 81.971054,196.381363 
	C82.015778,176.254929 82.026711,156.128250 81.962509,136.001923 
	C81.949997,132.078598 83.819832,130.704926 87.515396,130.807602 
	C92.169174,130.936890 96.829292,130.837326 101.983086,130.836441 
M90.743912,192.971344 
	C96.654404,192.971344 102.564896,192.971344 108.561249,192.971344 
	C108.561249,174.767471 108.561249,156.920258 108.561249,139.120422 
	C102.215942,139.120422 96.303925,139.120422 90.110741,139.120422 
	C90.110741,157.062973 90.110741,174.652100 90.743912,192.971344 
z"/>
<path fill="#456BF3" opacity="1.000000" stroke="none" 
	d="
M156.528198,53.284477 
	C154.792450,52.469929 152.536530,51.779869 152.233261,50.591496 
	C151.897263,49.274860 152.914536,46.967915 154.090424,46.018993 
	C160.048431,41.210983 166.283035,36.747780 172.353760,32.076710 
	C176.563995,28.837168 178.438538,32.968822 181.512268,35.299454 
	C182.934357,29.081001 184.243271,23.357361 185.662247,17.152441 
	C178.945557,17.152441 172.744385,17.152441 166.651413,17.152441 
	C167.395844,19.459818 169.120468,21.993620 168.568405,23.850578 
	C167.963760,25.884413 165.358887,27.421364 163.443481,28.945894 
	C160.188278,31.536835 156.956039,34.237598 153.370407,36.292377 
	C151.946350,37.108452 149.605881,36.325390 147.682632,36.270378 
	C148.066574,34.254242 147.766586,31.545891 148.968872,30.358004 
	C151.993668,27.369392 155.696533,25.067085 159.387161,22.294638 
	C157.720032,20.176657 156.075531,18.500250 154.955719,16.526192 
	C154.147614,15.101653 153.257370,12.896753 153.826813,11.741041 
	C154.445404,10.485546 156.692429,9.393181 158.261414,9.348267 
	C168.918701,9.043193 179.584259,8.999107 190.247528,8.948626 
	C193.657166,8.932483 195.141388,10.773337 194.375595,14.117796 
	C192.074570,24.167372 189.830017,34.232880 187.303970,44.226589 
	C186.145218,48.810989 183.072266,49.333862 179.708084,45.786961 
	C177.999420,43.985500 176.427902,42.053947 174.756836,40.138161 
	C168.659637,44.586746 162.764404,48.887978 156.528198,53.284477 
z"/>
<path fill="#3E66F3" opacity="1.000000" stroke="none" 
	d="
M74.258865,183.996170 
	C74.253891,188.652039 74.232536,192.809097 74.249268,196.966003 
	C74.260918,199.860916 72.819527,201.240814 69.962456,201.239731 
	C61.315918,201.236465 52.669357,201.227127 44.022858,201.245209 
	C41.116657,201.251297 39.757679,199.797028 39.758011,196.950378 
	C39.759251,186.308472 39.765816,175.666550 39.753498,165.024658 
	C39.750160,162.141479 41.148888,160.749039 44.029808,160.753754 
	C52.676323,160.767899 61.322922,160.774948 69.969391,160.750534 
	C73.242729,160.741302 74.284653,162.582886 74.264740,165.539093 
	C74.224434,171.524902 74.256523,177.511185 74.258865,183.996170 
M47.086369,189.282898 
	C47.689320,190.782028 48.217896,193.541550 48.906914,193.582214 
	C54.772282,193.928345 60.666809,193.780304 66.414253,193.780304 
	C66.414253,184.757370 66.414253,176.568756 66.414253,168.529480 
	C59.772678,168.529480 53.574436,168.529480 47.086372,168.529480 
	C47.086372,175.421844 47.086372,181.874786 47.086369,189.282898 
z"/>
<path fill="#456BF3" opacity="1.000000" stroke="none" 
	d="
M70.186874,99.156494 
	C63.538925,102.607079 59.802361,107.122467 62.680321,115.303215 
	C69.755501,110.233101 76.707359,105.247559 83.664665,100.269653 
	C84.743950,99.497437 85.807327,98.219597 86.950432,98.133209 
	C88.667686,98.003433 90.928917,98.214653 92.028786,99.259720 
	C92.725067,99.921326 92.157608,102.615791 91.374626,103.933739 
	C90.591270,105.252289 88.847763,106.010849 87.502319,106.983337 
	C79.017990,113.115814 70.594116,119.336433 61.976658,125.276070 
	C60.440193,126.335091 57.776726,127.007866 56.221157,126.387001 
	C55.021477,125.908173 54.599052,123.161781 54.107738,121.348625 
	C53.813831,120.263977 54.052448,119.034935 54.052296,117.870796 
	C54.049931,99.449768 54.004089,99.371445 70.075317,89.961067 
	C71.555725,89.094223 74.108414,90.058632 76.163193,90.172714 
	C75.627007,92.138527 75.446297,94.316559 74.440193,96.001831 
	C73.659805,97.308998 71.848366,98.000641 70.186874,99.156494 
z"/>
<path fill="#FCFDFF" opacity="1.000000" stroke="none" 
	d="
M195.267914,255.994690 
	C167.812454,253.142120 146.504425,231.320312 145.070602,205.042480 
	C143.550598,177.185623 161.591965,153.363312 188.766434,147.345261 
	C217.837875,140.907135 247.739609,160.516373 253.855515,190.030029 
	C259.948029,219.430664 240.708633,249.164261 211.614746,254.892105 
	C206.447296,255.909439 201.032974,255.672775 195.267914,255.994690 
M186.728851,189.322861 
	C176.931122,195.620377 172.296768,204.517212 172.794678,216.222961 
	C173.063232,222.536697 172.923874,228.872574 172.813553,235.195770 
	C172.751236,238.766953 174.205093,240.316879 177.848419,240.295471 
	C192.662033,240.208389 207.476532,240.228683 222.290466,240.280823 
	C225.635559,240.292603 227.157593,238.893829 227.098465,235.490097 
	C226.997284,229.666092 226.746231,223.816818 227.141220,218.017868 
	C227.971313,205.831360 223.803894,196.227798 213.513611,189.430328 
	C213.323990,189.305054 213.362320,188.834671 213.277298,188.448074 
	C213.796219,187.851273 214.372757,187.249817 214.880386,186.594940 
	C220.124039,179.830383 220.550919,171.558868 216.048157,164.235123 
	C211.923477,157.526321 203.781631,154.138672 195.699738,155.980347 
	C181.125473,159.301529 175.510925,177.306152 186.728851,189.322861 
z"/>
<path fill="#B1D7FE" opacity="1.000000" stroke="none" 
	d="
M150.956604,125.007957 
	C150.956573,136.503281 150.991241,147.500809 150.918243,158.497620 
	C150.907608,160.100739 150.877975,162.060181 150.017395,163.244553 
	C143.444061,172.291214 139.292175,182.301498 137.749359,193.222382 
	C131.481354,194.261169 131.252106,194.117462 131.247986,188.529953 
	C131.230347,164.535843 131.317627,140.541245 131.164795,116.548096 
	C131.139206,112.529900 132.138885,110.772423 136.450119,111.088737 
	C141.051254,111.426331 145.696365,111.164772 150.956635,111.164772 
	C150.956635,115.956810 150.956635,120.233376 150.956604,125.007957 
z"/>
<path fill="#B2D8FE" opacity="1.000000" stroke="none" 
	d="
M173.103271,106.000000 
	C173.103363,96.220131 173.103363,86.940269 173.103363,77.357880 
	C179.849518,77.357880 186.058151,77.357880 192.548721,77.357880 
	C192.548721,97.895317 192.548721,118.129280 192.548721,138.457413 
	C186.249268,140.223480 180.071487,141.955429 173.103195,143.908997 
	C173.103195,131.261932 173.103195,118.880966 173.103271,106.000000 
z"/>
<path fill="#B0D6FD" opacity="1.000000" stroke="none" 
	d="
M110.000000,225.902679 
	C82.910606,225.902603 56.321213,225.902603 29.336681,225.902603 
	C29.336681,222.627960 29.336681,219.743881 29.336681,216.095230 
	C31.264235,216.095230 33.192310,216.095230 35.120384,216.095230 
	C66.894302,216.095230 98.668221,216.095200 130.442139,216.095200 
	C139.471878,216.095200 139.471878,216.095230 141.759995,225.902756 
	C131.227844,225.902756 120.863922,225.902756 110.000000,225.902679 
z"/>
<path fill="#B1D7FE" opacity="1.000000" stroke="none" 
	d="
M78.564957,45.796268 
	C85.812462,30.891266 97.675034,24.243082 113.436111,26.002319 
	C126.578491,27.469257 137.296249,38.038483 140.319366,52.512962 
	C142.804230,64.410454 136.889038,78.066360 126.299950,84.878342 
	C114.772087,92.294228 99.861557,91.908676 89.349304,83.922874 
	C77.406876,74.850632 73.474541,61.292095 78.564957,45.796268 
M125.026657,46.622780 
	C129.786789,53.900188 129.933594,61.466583 125.346817,68.655136 
	C120.996292,75.473404 114.328194,78.865028 106.157852,77.835602 
	C98.307373,76.846474 92.676849,72.416405 89.729263,64.976883 
	C88.882790,62.840408 88.932892,60.311695 87.914490,58.294769 
	C87.339638,57.156284 85.336052,55.979893 84.141083,56.130459 
	C82.979347,56.276840 81.579948,57.933121 81.111717,59.225868 
	C80.649658,60.501595 81.024689,62.200947 81.374107,63.630974 
	C84.001656,74.384468 90.542679,81.685387 101.253769,84.582535 
	C112.155258,87.531204 121.632553,84.518326 129.279022,76.196220 
	C138.628937,66.020149 138.454834,49.477230 129.001846,39.346489 
	C118.948257,28.572073 103.071236,26.972740 91.972816,35.654068 
	C89.816422,37.340832 87.582619,39.250546 89.775246,42.263973 
	C91.574142,44.736267 93.694580,43.864712 95.867477,42.407700 
	C106.601700,35.209980 115.907043,36.417873 125.026657,46.622780 
M108.429764,76.033211 
	C110.694588,73.867424 112.936859,71.677422 115.230057,69.542114 
	C117.974892,66.986259 119.530075,64.087410 118.236725,60.232353 
	C116.918076,56.301907 114.152420,54.337814 110.069260,54.044296 
	C108.822052,53.954639 107.587547,53.688133 106.347229,53.502617 
	C106.403534,53.015282 106.459846,52.527946 106.516159,52.040611 
	C108.455048,52.040611 110.526642,52.468716 112.295570,51.920395 
	C114.069893,51.370399 115.542366,49.846592 117.147133,48.749580 
	C114.799614,45.901379 112.656372,42.830341 109.962051,40.360439 
	C109.281891,39.736927 106.832947,41.007404 105.218719,41.482021 
	C105.010361,41.543285 104.986504,42.094906 104.787979,42.349957 
	C103.802109,43.616581 102.492775,44.725090 101.842896,46.139877 
	C100.534454,48.988346 98.584435,52.046387 98.721382,54.931461 
	C98.907631,58.854980 102.140762,61.198959 106.202171,61.789646 
	C107.654533,62.000881 109.119728,62.123791 110.579071,62.287010 
	C109.414078,63.561726 108.355934,63.800591 107.286346,63.875195 
	C105.959541,63.967743 104.605843,63.792599 103.294556,63.966000 
	C100.229301,64.371338 98.523537,67.575539 100.448601,69.713890 
	C102.571701,72.072220 105.234291,73.944878 108.429764,76.033211 
M84.016693,45.454308 
	C82.311546,47.620552 81.375389,50.004555 84.105621,51.830139 
	C85.151642,52.529572 87.727692,52.586395 88.389961,51.846745 
	C89.517212,50.587814 90.489433,48.238720 90.070930,46.759605 
	C89.359703,44.245888 87.131279,43.318893 84.016693,45.454308 
z"/>
<path fill="#B5DBFE" opacity="1.000000" stroke="none" 
	d="
M90.427322,192.606293 
	C90.110741,174.652100 90.110741,157.062973 90.110741,139.120422 
	C96.303925,139.120422 102.215942,139.120422 108.561249,139.120422 
	C108.561249,156.920258 108.561249,174.767471 108.561249,192.971344 
	C102.564896,192.971344 96.654404,192.971344 90.427322,192.606293 
z"/>
<path fill="#B0D6FD" opacity="1.000000" stroke="none" 
	d="
M47.086372,188.805298 
	C47.086372,181.874786 47.086372,175.421844 47.086372,168.529480 
	C53.574436,168.529480 59.772678,168.529480 66.414253,168.529480 
	C66.414253,176.568756 66.414253,184.757370 66.414253,193.780304 
	C60.666809,193.780304 54.772282,193.928345 48.906914,193.582214 
	C48.217896,193.541550 47.689320,190.782028 47.086372,188.805298 
z"/>
<path fill="#436AF3" opacity="1.000000" stroke="none" 
	d="
M186.747314,188.973282 
	C175.510925,177.306152 181.125473,159.301529 195.699738,155.980347 
	C203.781631,154.138672 211.923477,157.526321 216.048157,164.235123 
	C220.550919,171.558868 220.124039,179.830383 214.880386,186.594940 
	C214.372757,187.249817 213.796219,187.851273 213.277298,188.448074 
	C213.362320,188.834671 213.323990,189.305054 213.513611,189.430328 
	C223.803894,196.227798 227.971313,205.831360 227.141220,218.017868 
	C226.746231,223.816818 226.997284,229.666092 227.098465,235.490097 
	C227.157593,238.893829 225.635559,240.292603 222.290466,240.280823 
	C207.476532,240.228683 192.662033,240.208389 177.848419,240.295471 
	C174.205093,240.316879 172.751236,238.766953 172.813553,235.195770 
	C172.923874,228.872574 173.063232,222.536697 172.794678,216.222961 
	C172.296768,204.517212 176.931122,195.620377 186.747314,188.973282 
M212.401291,232.878952 
	C214.506775,232.878952 216.612274,232.878952 219.189438,232.878952 
	C219.189438,225.575485 219.354416,218.950363 219.149551,212.336700 
	C218.864426,203.131317 211.269440,194.923248 202.493774,193.997757 
	C192.682770,192.963089 183.231888,198.418823 181.692474,207.818283 
	C180.382614,215.816086 181.421951,224.198624 181.421951,232.878754 
	C191.519028,232.878754 201.470444,232.878754 212.401291,232.878952 
M197.220123,185.676208 
	C202.785583,186.862061 207.225250,184.977036 209.888763,180.097717 
	C212.076630,176.089737 212.070679,171.647583 209.131241,167.874451 
	C206.167709,164.070374 202.212585,162.285522 197.275665,163.661880 
	C192.016388,165.128098 189.145981,168.449463 188.813736,173.442429 
	C188.416794,179.407486 190.442795,182.571350 197.220123,185.676208 
z"/>
<path fill="#426AF3" opacity="1.000000" stroke="none" 
	d="
M124.806435,46.328587 
	C115.907043,36.417873 106.601700,35.209980 95.867477,42.407700 
	C93.694580,43.864712 91.574142,44.736267 89.775246,42.263973 
	C87.582619,39.250546 89.816422,37.340832 91.972816,35.654068 
	C103.071236,26.972740 118.948257,28.572073 129.001846,39.346489 
	C138.454834,49.477230 138.628937,66.020149 129.279022,76.196220 
	C121.632553,84.518326 112.155258,87.531204 101.253769,84.582535 
	C90.542679,81.685387 84.001656,74.384468 81.374107,63.630974 
	C81.024689,62.200947 80.649658,60.501595 81.111717,59.225868 
	C81.579948,57.933121 82.979347,56.276840 84.141083,56.130459 
	C85.336052,55.979893 87.339638,57.156284 87.914490,58.294769 
	C88.932892,60.311695 88.882790,62.840408 89.729263,64.976883 
	C92.676849,72.416405 98.307373,76.846474 106.157852,77.835602 
	C114.328194,78.865028 120.996292,75.473404 125.346817,68.655136 
	C129.933594,61.466583 129.786789,53.900188 124.806435,46.328587 
z"/>
<path fill="#426AF3" opacity="1.000000" stroke="none" 
	d="
M108.045822,76.031151 
	C105.234291,73.944878 102.571701,72.072220 100.448601,69.713890 
	C98.523537,67.575539 100.229301,64.371338 103.294556,63.966000 
	C104.605843,63.792599 105.959541,63.967743 107.286346,63.875195 
	C108.355934,63.800591 109.414078,63.561726 110.579071,62.287010 
	C109.119728,62.123791 107.654533,62.000881 106.202171,61.789646 
	C102.140762,61.198959 98.907631,58.854980 98.721382,54.931461 
	C98.584435,52.046387 100.534454,48.988346 101.842896,46.139877 
	C102.492775,44.725090 103.802109,43.616581 104.787979,42.349957 
	C104.986504,42.094906 105.010361,41.543285 105.218719,41.482021 
	C106.832947,41.007404 109.281891,39.736927 109.962051,40.360439 
	C112.656372,42.830341 114.799614,45.901379 117.147133,48.749580 
	C115.542366,49.846592 114.069893,51.370399 112.295570,51.920395 
	C110.526642,52.468716 108.455048,52.040611 106.516159,52.040611 
	C106.459846,52.527946 106.403534,53.015282 106.347229,53.502617 
	C107.587547,53.688133 108.822052,53.954639 110.069260,54.044296 
	C114.152420,54.337814 116.918076,56.301907 118.236725,60.232353 
	C119.530075,64.087410 117.974892,66.986259 115.230057,69.542114 
	C112.936859,71.677422 110.694588,73.867424 108.045822,76.031151 
z"/>
<path fill="#4970F4" opacity="1.000000" stroke="none" 
	d="
M84.283569,45.211384 
	C87.131279,43.318893 89.359703,44.245888 90.070930,46.759605 
	C90.489433,48.238720 89.517212,50.587814 88.389961,51.846745 
	C87.727692,52.586395 85.151642,52.529572 84.105621,51.830139 
	C81.375389,50.004555 82.311546,47.620552 84.283569,45.211384 
z"/>
<path fill="#B5DBFE" opacity="1.000000" stroke="none" 
	d="
M211.911560,232.878845 
	C201.470444,232.878754 191.519028,232.878754 181.421951,232.878754 
	C181.421951,224.198624 180.382614,215.816086 181.692474,207.818283 
	C183.231888,198.418823 192.682770,192.963089 202.493774,193.997757 
	C211.269440,194.923248 218.864426,203.131317 219.149551,212.336700 
	C219.354416,218.950363 219.189438,225.575485 219.189438,232.878952 
	C216.612274,232.878952 214.506775,232.878952 211.911560,232.878845 
z"/>
<path fill="#B4DAFE" opacity="1.000000" stroke="none" 
	d="
M196.845398,185.538025 
	C190.442795,182.571350 188.416794,179.407486 188.813736,173.442429 
	C189.145981,168.449463 192.016388,165.128098 197.275665,163.661880 
	C202.212585,162.285522 206.167709,164.070374 209.131241,167.874451 
	C212.070679,171.647583 212.076630,176.089737 209.888763,180.097717 
	C207.225250,184.977036 202.785583,186.862061 196.845398,185.538025 
z"/>
</svg>