<svg width="135" height="135" viewBox="0 0 135 135" fill="none" xmlns="http://www.w3.org/2000/svg">
<rect x="0.5" y="0.530029" width="134" height="134" rx="67" fill="#EFF1F9"/>
<rect x="3" y="3.03003" width="129" height="129" rx="64.5" stroke="#1C1C25" stroke-opacity="0.2" stroke-width="5"/>
<g clip-path="url(#clip0_0_287)">
<g clip-path="url(#clip1_0_287)">
<g clip-path="url(#clip2_0_287)">
<path d="M93.6754 92.8663C93.6754 79.6575 100.518 70.5868 100.518 64.222C100.518 57.8573 96.8588 44.49 67.5787 44.49C38.2985 44.49 34 62.4728 34 69.4735C34 102.256 93.6754 116.259 93.6754 92.8663Z" fill="url(#paint0_linear_0_287)"/>
<path d="M58.862 92.3666C58.862 93.5344 57.9065 94.4898 56.7388 94.4898H47.963C46.7953 94.4898 45.8398 93.5344 45.8398 92.3666V82.7416C45.8398 81.5738 46.7953 80.6184 47.963 80.6184H56.7388C57.9065 80.6184 58.862 81.5738 58.862 82.7416V92.3666Z" fill="#3E66F3"/>
<path d="M74.467 92.367C74.467 93.5348 73.5115 94.4902 72.3438 94.4902H63.568C62.4003 94.4902 61.4448 93.5348 61.4448 92.367V77.6464C61.4448 76.4786 62.4003 75.5232 63.568 75.5232H72.3438C73.5115 75.5232 74.467 76.4786 74.467 77.6464V92.367Z" fill="#3E66F3"/>
<path d="M90.0724 92.3667C90.0724 93.5345 89.117 94.4899 87.9493 94.4899H79.1735C78.0057 94.4899 77.0503 93.5345 77.0503 92.3667V71.9843C77.0503 70.8165 78.0057 69.8611 79.1735 69.8611H87.9493C89.117 69.8611 90.0724 70.8165 90.0724 71.9843V92.3667Z" fill="#3E66F3"/>
<path d="M88.236 54.5296L78.6994 56.8498C77.9427 57.033 77.7741 57.6333 78.3246 58.1837L80.3596 60.1712C80.5304 60.3659 80.3277 60.625 80.1669 60.7347C78.8855 61.6094 76.8519 62.8929 74.041 64.3595C58.7379 72.3436 46.123 71.8539 45.9333 71.8452C44.9207 71.7938 44.0548 72.5739 44.0025 73.5882C43.9503 74.6031 44.7304 75.4683 45.7453 75.5206C45.8199 75.5244 46.1232 75.5381 46.6332 75.5381C49.9039 75.5381 61.6527 74.9738 75.7434 67.6224C79.0774 65.8829 81.3883 64.3827 82.7377 63.4329C82.9285 63.2986 83.2609 63.067 83.5678 63.3794L85.7936 65.6051C86.3441 66.1555 86.9414 65.9861 87.1214 65.2287L89.285 55.5738C89.4647 54.8162 88.9925 54.3465 88.236 54.5296Z" fill="#1C3EB7"/>
</g>
</g>
</g>
<defs>
<linearGradient id="paint0_linear_0_287" x1="67.2597" y1="29.8048" x2="67.2597" y2="99.6967" gradientUnits="userSpaceOnUse">
<stop stop-color="#486FFB"/>
<stop offset="1" stop-color="white" stop-opacity="0"/>
</linearGradient>
<clipPath id="clip0_0_287">
<rect width="67" height="60" fill="white" transform="translate(34 44.49)"/>
</clipPath>
<clipPath id="clip1_0_287">
<rect width="67" height="60" fill="white" transform="translate(34 44.49)"/>
</clipPath>
<clipPath id="clip2_0_287">
<rect width="67" height="60" fill="white" transform="translate(34 44.49)"/>
</clipPath>
</defs>
</svg>
