<svg width="135" height="135" viewBox="0 0 135 135" fill="none" xmlns="http://www.w3.org/2000/svg">
<rect x="0.5" y="0.530029" width="134" height="134" rx="67" fill="#EFF1F9"/>
<rect x="3" y="3.03003" width="129" height="129" rx="64.5" stroke="#1C1C25" stroke-opacity="0.2" stroke-width="5"/>
<g clip-path="url(#clip0_0_271)">
<g clip-path="url(#clip1_0_271)">
<g clip-path="url(#clip2_0_271)">
<path opacity="0.5" d="M67.5 104.49C84.0685 104.49 97.5 91.0585 97.5 74.49C97.5 57.9215 84.0685 44.49 67.5 44.49C50.9315 44.49 37.5 57.9215 37.5 74.49C37.5 91.0585 50.9315 104.49 67.5 104.49Z" fill="url(#paint0_linear_0_271)"/>
<path fill-rule="evenodd" clip-rule="evenodd" d="M91.1765 61.5452V85.9877C91.1765 86.3885 90.8454 86.7154 90.4396 86.7154H85.8751C85.4693 86.7154 85.1383 86.3885 85.1383 85.9877V61.5452H83.2093C82.865 61.5452 82.6867 61.14 82.9216 60.8914L87.6899 55.8459C87.9429 55.5783 88.3719 55.5783 88.6249 55.8459L93.3932 60.8914C93.6283 61.14 93.4499 61.5452 93.1055 61.5452H91.1765ZM60.4038 78.431C60.2397 77.6187 59.9163 76.8633 59.4666 76.198L60.3484 75.327L58.5917 73.5921L57.7099 74.4631C57.0361 74.0191 56.2712 73.6994 55.4487 73.5374V72.3064H52.9643V73.5374C52.1419 73.6995 51.3768 74.0189 50.7031 74.463L49.8214 73.5921L48.0646 75.327L48.9464 76.1979C48.4968 76.8633 48.1731 77.6186 48.0091 78.431H46.7627V80.8846H48.0091C48.1731 81.6969 48.4967 82.4524 48.9463 83.1178L48.0645 83.9886L49.8213 85.7235L50.703 84.8527C51.3767 85.2967 52.1417 85.6162 52.9642 85.7783V87.0092H55.4486V85.7782C56.2711 85.6162 57.0362 85.2968 57.7098 84.8527L58.5916 85.7235L60.3483 83.9886L59.4665 83.1178C59.9161 82.4523 60.2397 81.697 60.4037 80.8847H61.6503V78.4311L60.4038 78.431ZM54.2065 83.4806C52.0687 83.4806 50.3357 81.7691 50.3357 79.6578C50.3357 77.5466 52.0687 75.8352 54.2065 75.8352C56.3443 75.8352 58.0772 77.5467 58.0772 79.6578C58.0772 81.7691 56.3443 83.4806 54.2065 83.4806ZM82.8219 51.5342L77.5612 50.5055C77.1052 50.4177 76.6633 50.7115 76.5744 51.1617C76.4853 51.612 76.7828 52.0484 77.2388 52.1363L80.3035 52.7356L54.9167 67.2105C54.6816 67.1976 54.4448 67.1907 54.2064 67.1907C47.1888 67.1907 41.5 72.8089 41.5 79.7392C41.5 86.6696 47.1888 92.2878 54.2064 92.2878C57.1685 92.2878 59.8939 91.2868 62.0546 89.6087L64.5679 92.0907L63.7432 92.905L65.5915 94.7304L69.3862 90.9829L67.5378 89.1576L66.7131 89.9719L64.2 87.49C65.8992 85.3561 66.9129 82.6646 66.9129 79.7392C66.9129 73.9494 62.9421 69.0763 57.5435 67.6288L81.1447 54.172L80.1365 57.0969C79.9875 57.5311 80.2232 58.0024 80.6628 58.1495C81.1025 58.2966 81.5796 58.0639 81.7286 57.6297L83.4443 52.6524C83.6341 52.1717 83.3394 51.6339 82.8219 51.5342ZM64.1274 79.7392C64.1274 85.1504 59.6858 89.537 54.2065 89.537C48.7273 89.537 44.2855 85.1504 44.2855 79.7392C44.2855 74.328 48.7273 69.9414 54.2065 69.9414C59.6858 69.9414 64.1274 74.3281 64.1274 79.7392ZM66.7823 95.9064L70.5769 92.1589L76.4607 97.9696C77.5042 99.0001 77.5042 100.687 76.4607 101.717C75.4172 102.748 73.7095 102.748 72.6661 101.717L66.7823 95.9064ZM65.6091 71.0703H69.3506C69.7564 71.0703 70.0874 71.3972 70.0874 71.798V85.9876C70.0874 86.3884 69.7564 86.7153 69.3506 86.7153H66.7458C67.924 84.6543 68.5972 82.2746 68.5972 79.7392C68.5971 76.4757 67.4822 73.4696 65.6091 71.0703ZM75.3305 65.6113H79.8951C80.3009 65.6113 80.632 65.9382 80.632 66.339V85.9877C80.632 86.3885 80.301 86.7154 79.8951 86.7154H75.3305C74.9247 86.7154 74.5936 86.3885 74.5936 85.9877V66.339C74.5938 65.9382 74.9247 65.6113 75.3305 65.6113Z" fill="#3E66F3"/>
</g>
</g>
</g>
<defs>
<linearGradient id="paint0_linear_0_271" x1="67.5" y1="104.49" x2="67.5" y2="44.49" gradientUnits="userSpaceOnUse">
<stop stop-color="white" stop-opacity="0"/>
<stop offset="1" stop-color="#486FFA"/>
</linearGradient>
<clipPath id="clip0_0_271">
<rect width="60" height="60" fill="white" transform="translate(37.5 44.49)"/>
</clipPath>
<clipPath id="clip1_0_271">
<rect width="60" height="60" fill="white" transform="translate(37.5 44.49)"/>
</clipPath>
<clipPath id="clip2_0_271">
<rect width="60" height="60" fill="white" transform="translate(37.5 44.49)"/>
</clipPath>
</defs>
</svg>
