<svg width="135" height="135" viewBox="0 0 135 135" fill="none" xmlns="http://www.w3.org/2000/svg">
<rect x="0.5" y="0.530029" width="134" height="134" rx="67" fill="#EFF1F9"/>
<rect x="3" y="3.03003" width="129" height="129" rx="64.5" stroke="#1C1C25" stroke-opacity="0.2" stroke-width="5"/>
<g clip-path="url(#clip0_0_202)">
<g clip-path="url(#clip1_0_202)">
<g clip-path="url(#clip2_0_202)">
<path opacity="0.5" d="M67.5 104.49C84.0685 104.49 97.5 91.0585 97.5 74.49C97.5 57.9215 84.0685 44.49 67.5 44.49C50.9315 44.49 37.5 57.9215 37.5 74.49C37.5 91.0585 50.9315 104.49 67.5 104.49Z" fill="url(#paint0_linear_0_202)"/>
<path d="M81.5625 75.4275H78.75C78.5014 75.4275 78.2629 75.3287 78.0871 75.1529C77.9113 74.9771 77.8125 74.7386 77.8125 74.49C77.8125 74.2414 77.9113 74.0029 78.0871 73.8271C78.2629 73.6513 78.5014 73.5525 78.75 73.5525H81.5625C83.5516 73.5525 85.4593 72.7623 86.8658 71.3558C88.2723 69.9493 89.0625 68.0416 89.0625 66.0525C89.0625 64.0634 88.2723 62.1557 86.8658 60.7492C85.4593 59.3427 83.5516 58.5525 81.5625 58.5525H75C74.7514 58.5525 74.5129 58.4537 74.3371 58.2779C74.1613 58.1021 74.0625 57.8636 74.0625 57.615C74.0625 57.3664 74.1613 57.1279 74.3371 56.9521C74.5129 56.7763 74.7514 56.6775 75 56.6775H81.5625C84.0489 56.6775 86.4335 57.6652 88.1916 59.4234C89.9498 61.1815 90.9375 63.5661 90.9375 66.0525C90.9375 68.5389 89.9498 70.9235 88.1916 72.6816C86.4335 74.4398 84.0489 75.4275 81.5625 75.4275Z" fill="#3E66F3"/>
<path d="M81.0938 77.7712C80.5688 77.7712 80.5876 77.6493 78.0844 75.1556C77.9966 75.0684 77.9268 74.9647 77.8792 74.8505C77.8316 74.7362 77.8071 74.6137 77.8071 74.4899C77.8071 74.3662 77.8316 74.2436 77.8792 74.1294C77.9268 74.0151 77.9966 73.9115 78.0844 73.8243L80.4282 71.4806C80.6047 71.304 80.8442 71.2048 81.0938 71.2048C81.3435 71.2048 81.5829 71.304 81.7594 71.4806C81.936 71.6571 82.0352 71.8965 82.0352 72.1462C82.0352 72.3958 81.936 72.6353 81.7594 72.8118L80.0719 74.4899L81.7594 76.1681C81.8917 76.2992 81.9818 76.4667 82.0185 76.6493C82.0551 76.8319 82.0365 77.0212 81.9651 77.1932C81.8937 77.3652 81.7727 77.512 81.6175 77.6149C81.4623 77.7179 81.28 77.7723 81.0938 77.7712Z" fill="#3E66F3"/>
<path d="M56.2502 92.3023C53.0439 92.3023 49.8939 92.6585 46.8096 89.546C45.4092 88.1445 44.4888 86.3353 44.1806 84.3781C43.8723 82.4209 44.1921 80.4164 45.0939 78.6523C45.2083 78.431 45.4059 78.2642 45.6433 78.1886C45.8806 78.113 46.1383 78.1348 46.3596 78.2492C46.5809 78.3635 46.7476 78.5611 46.8232 78.7985C46.8988 79.0358 46.8771 79.2935 46.7627 79.5148C46.0421 80.9251 45.7864 82.5273 46.0322 84.0918C46.2781 85.6564 47.013 87.1029 48.1314 88.2242C50.6252 90.7648 53.2971 90.4273 56.2502 90.4273C56.4988 90.4273 56.7373 90.5261 56.9131 90.7019C57.0889 90.8777 57.1877 91.1161 57.1877 91.3648C57.1877 91.6134 57.0889 91.8519 56.9131 92.0277C56.7373 92.2035 56.4988 92.3023 56.2502 92.3023Z" fill="#3E66F3"/>
<path d="M46.875 76.2524C50.2781 72.8774 53.85 73.5524 60 73.5524C60.2486 73.5524 60.4871 73.6512 60.6629 73.827C60.8387 74.0028 60.9375 74.2413 60.9375 74.4899C60.9375 74.7386 60.8387 74.977 60.6629 75.1528C60.4871 75.3287 60.2486 75.4274 60 75.4274C53.6625 75.4274 50.9343 74.8649 48.1781 77.5837C47.9964 77.725 47.769 77.7945 47.5393 77.779C47.3096 77.7635 47.0936 77.664 46.9326 77.4994C46.7715 77.3349 46.6767 77.1169 46.666 76.8869C46.6554 76.6569 46.7298 76.4311 46.875 76.2524Z" fill="#3E66F3"/>
<path d="M53.9063 94.6462C53.7201 94.6473 53.5378 94.5929 53.3826 94.4899C53.2275 94.387 53.1065 94.2402 53.035 94.0682C52.9636 93.8962 52.9451 93.7069 52.9817 93.5243C53.0183 93.3417 53.1085 93.1742 53.2407 93.0431L54.9282 91.3649L53.2407 89.6868C53.1533 89.5994 53.084 89.4956 53.0367 89.3814C52.9893 89.2672 52.965 89.1448 52.965 89.0212C52.965 88.8976 52.9893 88.7752 53.0367 88.6609C53.084 88.5467 53.1533 88.443 53.2407 88.3556C53.3281 88.2681 53.4319 88.1988 53.5461 88.1515C53.6603 88.1042 53.7827 88.0798 53.9063 88.0798C54.0299 88.0798 54.1524 88.1042 54.2666 88.1515C54.3808 88.1988 54.4845 88.2681 54.572 88.3556L56.9157 90.6993C57.0036 90.7865 57.0733 90.8901 57.1209 91.0044C57.1685 91.1186 57.193 91.2412 57.193 91.3649C57.193 91.4887 57.1685 91.6112 57.1209 91.7255C57.0733 91.8397 57.0036 91.9434 56.9157 92.0306C54.3751 94.5618 54.422 94.6462 53.9063 94.6462Z" fill="#3E66F3"/>
<path d="M53.9063 60.8962C53.7201 60.8973 53.5378 60.8429 53.3826 60.7399C53.2275 60.637 53.1065 60.4902 53.035 60.3182C52.9636 60.1462 52.9451 59.9569 52.9817 59.7743C53.0183 59.5917 53.1085 59.4242 53.2407 59.2931L54.9282 57.6149L53.2407 55.9368C53.1533 55.8494 53.084 55.7456 53.0367 55.6314C52.9893 55.5172 52.965 55.3948 52.965 55.2712C52.965 55.0215 53.0642 54.7821 53.2407 54.6056C53.4172 54.429 53.6567 54.3299 53.9063 54.3299C54.0299 54.3299 54.1524 54.3542 54.2666 54.4015C54.3808 54.4488 54.4845 54.5181 54.572 54.6056L56.9157 56.9493C57.0036 57.0365 57.0733 57.1401 57.1209 57.2544C57.1685 57.3686 57.193 57.4912 57.193 57.6149C57.193 57.7387 57.1685 57.8612 57.1209 57.9755C57.0733 58.0897 57.0036 58.1934 56.9157 58.2806C54.3751 60.8118 54.422 60.8962 53.9063 60.8962Z" fill="#3E66F3"/>
<path d="M56.25 58.5525H45C44.7514 58.5525 44.5129 58.4537 44.3371 58.2779C44.1613 58.1021 44.0625 57.8636 44.0625 57.615C44.0625 57.3664 44.1613 57.1279 44.3371 56.9521C44.5129 56.7763 44.7514 56.6775 45 56.6775H56.25C56.4986 56.6775 56.7371 56.7763 56.9129 56.9521C57.0887 57.1279 57.1875 57.3664 57.1875 57.615C57.1875 57.8636 57.0887 58.1021 56.9129 58.2779C56.7371 58.4537 56.4986 58.5525 56.25 58.5525Z" fill="#3E66F3"/>
<path d="M73.125 68.865H61.875C60.8395 68.865 60 69.7045 60 70.74V78.24C60 79.2755 60.8395 80.115 61.875 80.115H73.125C74.1605 80.115 75 79.2755 75 78.24V70.74C75 69.7045 74.1605 68.865 73.125 68.865Z" fill="#C5C6CF"/>
<path d="M73.125 85.74H61.875C60.8395 85.74 60 86.5795 60 87.615V95.115C60 96.1505 60.8395 96.99 61.875 96.99H73.125C74.1605 96.99 75 96.1505 75 95.115V87.615C75 86.5795 74.1605 85.74 73.125 85.74Z" fill="#C5C6CF"/>
<path d="M73.125 51.99H61.875C60.8395 51.99 60 52.8295 60 53.865V61.365C60 62.4005 60.8395 63.24 61.875 63.24H73.125C74.1605 63.24 75 62.4005 75 61.365V53.865C75 52.8295 74.1605 51.99 73.125 51.99Z" fill="#C5C6CF"/>
<path d="M73.125 81.0526H61.875C61.1291 81.0526 60.4137 80.7563 59.8863 80.2288C59.3588 79.7014 59.0625 78.986 59.0625 78.2401V70.7401C59.0625 69.9942 59.3588 69.2788 59.8863 68.7514C60.4137 68.2239 61.1291 67.9276 61.875 67.9276H69.375C69.6236 67.9276 69.8621 68.0264 70.0379 68.2022C70.2137 68.378 70.3125 68.6165 70.3125 68.8651C70.3125 69.1138 70.2137 69.3522 70.0379 69.528C69.8621 69.7038 69.6236 69.8026 69.375 69.8026H61.875C61.6264 69.8026 61.3879 69.9014 61.2121 70.0772C61.0363 70.253 60.9375 70.4915 60.9375 70.7401V78.2401C60.9375 78.4888 61.0363 78.7272 61.2121 78.903C61.3879 79.0788 61.6264 79.1776 61.875 79.1776H73.125C73.3736 79.1776 73.6121 79.0788 73.7879 78.903C73.9637 78.7272 74.0625 78.4888 74.0625 78.2401V70.7401C74.0625 70.4915 73.9637 70.253 73.7879 70.0772C73.6121 69.9014 73.3736 69.8026 73.125 69.8026C72.8764 69.8026 72.6379 69.7038 72.4621 69.528C72.2863 69.3522 72.1875 69.1138 72.1875 68.8651C72.1875 67.0745 75.9375 67.9276 75.9375 70.7401V78.2401C75.9375 78.986 75.6412 79.7014 75.1137 80.2288C74.5863 80.7563 73.8709 81.0526 73.125 81.0526Z" fill="#3E66F3"/>
<path d="M73.125 97.9275H71.25C71.0014 97.9275 70.7629 97.8287 70.5871 97.6529C70.4113 97.4771 70.3125 97.2386 70.3125 96.99C70.3125 96.7414 70.4113 96.5029 70.5871 96.3271C70.7629 96.1513 71.0014 96.0525 71.25 96.0525H73.125C73.3736 96.0525 73.6121 95.9537 73.7879 95.7779C73.9637 95.6021 74.0625 95.3636 74.0625 95.115V87.615C74.0625 87.3664 73.9637 87.1279 73.7879 86.9521C73.6121 86.7763 73.3736 86.6775 73.125 86.6775H61.875C61.6264 86.6775 61.3879 86.7763 61.2121 86.9521C61.0363 87.1279 60.9375 87.3664 60.9375 87.615V95.115C60.9375 95.3636 61.0363 95.6021 61.2121 95.7779C61.3879 95.9537 61.6264 96.0525 61.875 96.0525H67.5C67.7486 96.0525 67.9871 96.1513 68.1629 96.3271C68.3387 96.5029 68.4375 96.7414 68.4375 96.99C68.4375 97.2386 68.3387 97.4771 68.1629 97.6529C67.9871 97.8287 67.7486 97.9275 67.5 97.9275H61.875C61.1291 97.9275 60.4137 97.6312 59.8863 97.1037C59.3588 96.5763 59.0625 95.8609 59.0625 95.115V87.615C59.0625 86.8691 59.3588 86.1537 59.8863 85.6263C60.4137 85.0988 61.1291 84.8025 61.875 84.8025H73.125C73.8709 84.8025 74.5863 85.0988 75.1137 85.6263C75.6412 86.1537 75.9375 86.8691 75.9375 87.615V95.115C75.9375 95.8609 75.6412 96.5763 75.1137 97.1037C74.5863 97.6312 73.8709 97.9275 73.125 97.9275Z" fill="#3E66F3"/>
<path d="M73.1251 64.1775H61.8751C61.1292 64.1775 60.4138 63.8812 59.8864 63.3537C59.3589 62.8263 59.0626 62.1109 59.0626 61.365V57.615C59.0626 57.3664 59.1614 57.1279 59.3372 56.9521C59.513 56.7763 59.7515 56.6775 60.0001 56.6775C60.2488 56.6775 60.4872 56.7763 60.663 56.9521C60.8388 57.1279 60.9376 57.3664 60.9376 57.615V61.365C60.9376 61.6136 61.0364 61.8521 61.2122 62.0279C61.388 62.2037 61.6265 62.3025 61.8751 62.3025H73.1251C73.3738 62.3025 73.6122 62.2037 73.788 62.0279C73.9638 61.8521 74.0626 61.6136 74.0626 61.365V53.865C74.0626 53.6164 73.9638 53.3779 73.788 53.2021C73.6122 53.0263 73.3738 52.9275 73.1251 52.9275H61.8751C61.6265 52.9275 61.388 53.0263 61.2122 53.2021C61.0364 53.3779 60.9376 53.6164 60.9376 53.865C60.9376 54.1137 60.8388 54.3521 60.663 54.5279C60.4872 54.7037 60.2488 54.8025 60.0001 54.8025C58.2095 54.8025 59.0626 51.0525 61.8751 51.0525H73.1251C73.871 51.0525 74.5864 51.3488 75.1138 51.8763C75.6413 52.4037 75.9376 53.1191 75.9376 53.865V61.365C75.9376 62.1109 75.6413 62.8263 75.1138 63.3537C74.5864 63.8812 73.871 64.1775 73.1251 64.1775Z" fill="#3E66F3"/>
<path d="M71.25 56.6775H67.5C67.2514 56.6775 67.0129 56.5787 66.8371 56.4029C66.6613 56.2271 66.5625 55.9886 66.5625 55.74C66.5625 55.4914 66.6613 55.2529 66.8371 55.0771C67.0129 54.9013 67.2514 54.8025 67.5 54.8025H71.25C71.4986 54.8025 71.7371 54.9013 71.9129 55.0771C72.0887 55.2529 72.1875 55.4914 72.1875 55.74C72.1875 55.9886 72.0887 56.2271 71.9129 56.4029C71.7371 56.5787 71.4986 56.6775 71.25 56.6775Z" fill="white"/>
<path d="M64.6875 55.74C64.6875 55.9886 64.5887 56.2271 64.4129 56.4029C64.2371 56.5787 63.9986 56.6775 63.75 56.6775C63.5014 56.6775 63.2629 56.5787 63.0871 56.4029C62.9113 56.2271 62.8125 55.9886 62.8125 55.74C62.8125 55.4914 62.9113 55.2529 63.0871 55.0771C63.2629 54.9013 63.5014 54.8025 63.75 54.8025C63.9986 54.8025 64.2371 54.9013 64.4129 55.0771C64.5887 55.2529 64.6875 55.4914 64.6875 55.74Z" fill="white"/>
<path d="M71.25 73.5525H67.5C67.2514 73.5525 67.0129 73.4537 66.8371 73.2779C66.6613 73.1021 66.5625 72.8636 66.5625 72.615C66.5625 72.3664 66.6613 72.1279 66.8371 71.9521C67.0129 71.7763 67.2514 71.6775 67.5 71.6775H71.25C71.4986 71.6775 71.7371 71.7763 71.9129 71.9521C72.0887 72.1279 72.1875 72.3664 72.1875 72.615C72.1875 72.8636 72.0887 73.1021 71.9129 73.2779C71.7371 73.4537 71.4986 73.5525 71.25 73.5525Z" fill="white"/>
<path d="M64.6875 72.615C64.6875 72.8636 64.5887 73.1021 64.4129 73.2779C64.2371 73.4537 63.9986 73.5525 63.75 73.5525C63.5014 73.5525 63.2629 73.4537 63.0871 73.2779C62.9113 73.1021 62.8125 72.8636 62.8125 72.615C62.8125 72.3664 62.9113 72.1279 63.0871 71.9521C63.2629 71.7763 63.5014 71.6775 63.75 71.6775C63.9986 71.6775 64.2371 71.7763 64.4129 71.9521C64.5887 72.1279 64.6875 72.3664 64.6875 72.615Z" fill="white"/>
<path d="M66.5626 94.4117C66.0376 94.4117 66.0563 94.2898 63.5532 91.7961C63.3717 91.6195 63.2678 91.3781 63.2643 91.125C63.2607 90.8718 63.3579 90.6276 63.5345 90.4461C63.711 90.2646 63.9524 90.1606 64.2056 90.1571C64.4588 90.1536 64.703 90.2508 64.8845 90.4273L66.5626 92.1523L70.1157 88.5523C70.2031 88.4649 70.3069 88.3956 70.4211 88.3483C70.5353 88.301 70.6577 88.2766 70.7813 88.2766C70.905 88.2766 71.0274 88.301 71.1416 88.3483C71.2558 88.3956 71.3596 88.4649 71.447 88.5523C71.5344 88.6397 71.6037 88.7435 71.651 88.8577C71.6983 88.9719 71.7227 89.0943 71.7227 89.218C71.7227 89.3416 71.6983 89.464 71.651 89.5782C71.6037 89.6924 71.5344 89.7962 71.447 89.8836C67.1157 94.243 67.1157 94.4117 66.5626 94.4117Z" fill="white"/>
<path d="M71.25 60.4275H63.75C63.5014 60.4275 63.2629 60.3287 63.0871 60.1529C62.9113 59.9771 62.8125 59.7386 62.8125 59.49C62.8125 59.2414 62.9113 59.0029 63.0871 58.8271C63.2629 58.6513 63.5014 58.5525 63.75 58.5525H71.25C71.4986 58.5525 71.7371 58.6513 71.9129 58.8271C72.0887 59.0029 72.1875 59.2414 72.1875 59.49C72.1875 59.7386 72.0887 59.9771 71.9129 60.1529C71.7371 60.3287 71.4986 60.4275 71.25 60.4275Z" fill="white"/>
<path d="M71.25 77.3025H63.75C63.5014 77.3025 63.2629 77.2037 63.0871 77.0279C62.9113 76.8521 62.8125 76.6136 62.8125 76.365C62.8125 76.1164 62.9113 75.8779 63.0871 75.7021C63.2629 75.5263 63.5014 75.4275 63.75 75.4275H71.25C71.4986 75.4275 71.7371 75.5263 71.9129 75.7021C72.0887 75.8779 72.1875 76.1164 72.1875 76.365C72.1875 76.6136 72.0887 76.8521 71.9129 77.0279C71.7371 77.2037 71.4986 77.3025 71.25 77.3025Z" fill="white"/>
</g>
</g>
</g>
<defs>
<linearGradient id="paint0_linear_0_202" x1="67.5" y1="104.49" x2="67.5" y2="44.49" gradientUnits="userSpaceOnUse">
<stop stop-color="white" stop-opacity="0"/>
<stop offset="1" stop-color="#486FFA"/>
</linearGradient>
<clipPath id="clip0_0_202">
<rect width="60" height="60" fill="white" transform="translate(37.5 44.49)"/>
</clipPath>
<clipPath id="clip1_0_202">
<rect width="60" height="60" fill="white" transform="translate(37.5 44.49)"/>
</clipPath>
<clipPath id="clip2_0_202">
<rect width="60" height="60" fill="white" transform="translate(37.5 44.49)"/>
</clipPath>
</defs>
</svg>
