<svg width="135" height="135" viewBox="0 0 135 135" fill="none" xmlns="http://www.w3.org/2000/svg">
<rect x="0.5" y="0.530029" width="134" height="134" rx="67" fill="#EFF1F9"/>
<rect x="3" y="3.03003" width="129" height="129" rx="64.5" stroke="#1C1C25" stroke-opacity="0.2" stroke-width="5"/>
<g clip-path="url(#clip0_0_238)">
<g clip-path="url(#clip1_0_238)">
<path d="M90.555 90.5286C90.555 79.0002 96.5267 71.0836 96.5267 65.5286C96.5267 59.9736 93.3333 48.3069 67.7783 48.3069C42.2233 48.3069 38.4717 64.0019 38.4717 70.1119C38.4717 98.7236 90.555 110.945 90.555 90.5286Z" fill="url(#paint0_linear_0_238)"/>
<path d="M57.4512 58.3582L59.8082 56.0012L60.9867 57.1797L58.6297 59.5367L57.4512 58.3582Z" fill="#3E66F3"/>
<path d="M50.6743 65.1336L53.0313 62.7765L54.2099 63.955L51.8528 66.3121L50.6743 65.1336Z" fill="#3E66F3"/>
<path d="M50.9702 57.1824L52.1487 56.0039L54.5057 58.3609L53.3272 59.5394L50.9702 57.1824Z" fill="#3E66F3"/>
<path d="M80.6501 68.2901L59.6835 89.2734L52.7168 82.3068L73.7001 61.3401L80.6501 68.2901Z" fill="#C5C6CF"/>
<path d="M86.2502 60.6567C86.2502 61.9233 85.7669 63.19 84.8002 64.14L80.6502 68.29L73.7002 61.34L77.8502 57.19C79.7669 55.2567 82.8835 55.2567 84.8002 57.19C85.7669 58.1567 86.2502 59.4067 86.2502 60.6567Z" fill="#5D82FF"/>
<path d="M59.6833 89.2736L48.75 93.2402L52.7167 82.3069L59.6833 89.2736Z" fill="#5D82FF"/>
<path d="M76.6668 93.2402C81.9596 93.2402 86.2502 88.9496 86.2502 83.6568C86.2502 78.3641 81.9596 74.0735 76.6668 74.0735C71.3741 74.0735 67.0835 78.3641 67.0835 83.6568C67.0835 88.9496 71.3741 93.2402 76.6668 93.2402Z" fill="#5E82FF"/>
<path d="M77.4502 61.3398L81.6002 57.1898C82.0719 56.7132 82.6185 56.3565 83.2002 56.1148C81.4202 55.3748 79.2952 55.7315 77.8502 57.1898L73.7002 61.3398L80.6502 68.2898L82.5252 66.4148L77.4502 61.3398Z" fill="#1C3EB7"/>
<path d="M55.4683 85.0586L52.7167 82.3069L48.75 93.2402L53.0683 91.6736L55.4683 85.0586Z" fill="#1C3EB7"/>
<path d="M70.8335 83.6568C70.8335 79.0068 74.1468 75.1318 78.5418 74.2602C77.9352 74.1402 77.3085 74.0735 76.6668 74.0735C71.3735 74.0735 67.0835 78.3635 67.0835 83.6568C67.0835 88.9502 71.3735 93.2402 76.6668 93.2402C77.3085 93.2402 77.9352 93.1752 78.5418 93.0535C74.1468 92.1818 70.8335 88.3068 70.8335 83.6568Z" fill="#1C3EB7"/>
<path d="M56.4668 82.3068L75.5751 63.2151L73.7001 61.3401L52.7168 82.3068L59.6835 89.2734L61.5585 87.3984L56.4668 82.3068Z" fill="#D5DBE1"/>
<path d="M76.6668 94.4902C70.6935 94.4902 65.8335 89.6302 65.8335 83.6568C65.8335 77.6835 70.6935 72.8235 76.6668 72.8235C82.6402 72.8235 87.5002 77.6835 87.5002 83.6568C87.5002 89.6302 82.6402 94.4902 76.6668 94.4902ZM76.6668 75.3235C72.0718 75.3235 68.3335 79.0618 68.3335 83.6568C68.3335 88.2518 72.0718 91.9902 76.6668 91.9902C81.2618 91.9902 85.0002 88.2518 85.0002 83.6568C85.0002 79.0618 81.2618 75.3235 76.6668 75.3235Z" fill="#3E66F3"/>
<path d="M75.4165 79.0735H77.9165V88.2402H75.4165V79.0735Z" fill="white"/>
<path d="M72.0835 82.4065H81.2502V84.9065H72.0835V82.4065Z" fill="white"/>
<path d="M72.8403 62.2581L74.6081 60.4903L81.4989 67.3811L79.7311 69.1488L72.8403 62.2581Z" fill="#C5C6CF"/>
<path d="M48.7502 94.4902C48.4252 94.4902 48.1052 94.3635 47.8668 94.1235C47.5235 93.7802 47.4102 93.2685 47.5752 92.8135L51.5418 81.8802C51.6052 81.7069 51.7035 81.5519 51.8335 81.4235L76.9668 56.3069C79.2868 53.9669 83.3602 53.9636 85.6885 56.3102C86.8552 57.4785 87.5002 59.0235 87.5002 60.6569C87.5002 62.3219 86.8518 63.8752 85.6768 65.0319L80.4518 70.2569L78.6835 68.4885L83.9168 63.2552C84.6185 62.5652 85.0002 61.6435 85.0002 60.6552C85.0002 59.6885 84.6152 58.7719 83.9168 58.0719C82.5285 56.6719 80.1185 56.6752 78.7385 58.0685L53.7968 82.9952L50.8368 91.1552L58.9968 88.1952L61.5002 85.6902L63.2685 87.4585L60.5685 90.1585C60.4385 90.2885 60.2835 90.3885 60.1118 90.4502L49.1785 94.4169C49.0368 94.4652 48.8935 94.4902 48.7502 94.4902Z" fill="#3E66F3"/>
<path d="M51.8257 83.1951L53.5935 81.4273L60.5573 88.3911L58.7895 90.1589L51.8257 83.1951Z" fill="#C5C6CF"/>
</g>
</g>
<defs>
<linearGradient id="paint0_linear_0_238" x1="67.5" y1="35.49" x2="67.5" y2="96.49" gradientUnits="userSpaceOnUse">
<stop stop-color="#486FFB"/>
<stop offset="1" stop-color="white" stop-opacity="0"/>
</linearGradient>
<clipPath id="clip0_0_238">
<rect width="60" height="54" fill="white" transform="translate(37.5 47.49)"/>
</clipPath>
<clipPath id="clip1_0_238">
<rect width="60" height="54" fill="white" transform="translate(37.5 47.49)"/>
</clipPath>
</defs>
</svg>
